Roman_opsz9.ufo
<glyph name="numbersign" format="2">
  <advance width="856"/>
  <unicode hex="0023"/>
  <outline>
    <contour>
      <point x="193" y="-194" type="curve" smooth="yes"/>
      <point x="208" y="-194"/>
      <point x="212" y="-182"/>
      <point x="215" y="-170" type="curve" smooth="yes"/>
      <point x="298" y="127" type="line"/>
      <point x="488" y="127" type="line"/>
      <point x="410" y="-154" type="line"/>
      <point x="406" y="-166"/>
      <point x="406" y="-168"/>
      <point x="406" y="-172" type="curve" smooth="yes"/>
      <point x="406" y="-185"/>
      <point x="415" y="-194"/>
      <point x="428" y="-194" type="curve" smooth="yes"/>
      <point x="443" y="-194"/>
      <point x="447" y="-182"/>
      <point x="450" y="-170" type="curve" smooth="yes"/>
      <point x="533" y="127" type="line"/>
      <point x="761" y="127" type="line" smooth="yes"/>
      <point x="776" y="127"/>
      <point x="798" y="127"/>
      <point x="798" y="149" type="curve" smooth="yes"/>
      <point x="798" y="170"/>
      <point x="779" y="170"/>
      <point x="765" y="170" type="curve" smooth="yes"/>
      <point x="545" y="170" type="line"/>
      <point x="589" y="331" type="line"/>
      <point x="765" y="331" type="line" smooth="yes"/>
      <point x="779" y="331"/>
      <point x="798" y="331"/>
      <point x="798" y="352" type="curve" smooth="yes"/>
      <point x="798" y="374"/>
      <point x="776" y="374"/>
      <point x="761" y="374" type="curve" smooth="yes"/>
      <point x="602" y="374" type="line"/>
      <point x="680" y="654" type="line"/>
      <point x="684" y="666"/>
      <point x="684" y="668"/>
      <point x="684" y="672" type="curve" smooth="yes"/>
      <point x="684" y="685"/>
      <point x="675" y="694"/>
      <point x="662" y="694" type="curve" smooth="yes"/>
      <point x="647" y="694"/>
      <point x="643" y="682"/>
      <point x="640" y="670" type="curve" smooth="yes"/>
      <point x="557" y="374" type="line"/>
      <point x="367" y="374" type="line"/>
      <point x="445" y="654" type="line"/>
      <point x="449" y="666"/>
      <point x="449" y="668"/>
      <point x="449" y="672" type="curve" smooth="yes"/>
      <point x="449" y="685"/>
      <point x="440" y="694"/>
      <point x="427" y="694" type="curve" smooth="yes"/>
      <point x="412" y="694"/>
      <point x="408" y="682"/>
      <point x="405" y="670" type="curve" smooth="yes"/>
      <point x="322" y="374" type="line"/>
      <point x="94" y="374" type="line" smooth="yes"/>
      <point x="79" y="374"/>
      <point x="57" y="374"/>
      <point x="57" y="352" type="curve" smooth="yes"/>
      <point x="57" y="331"/>
      <point x="77" y="331"/>
      <point x="90" y="331" type="curve" smooth="yes"/>
      <point x="310" y="331" type="line"/>
      <point x="266" y="170" type="line"/>
      <point x="90" y="170" type="line" smooth="yes"/>
      <point x="77" y="170"/>
      <point x="57" y="170"/>
      <point x="57" y="149" type="curve" smooth="yes"/>
      <point x="57" y="127"/>
      <point x="79" y="127"/>
      <point x="94" y="127" type="curve" smooth="yes"/>
      <point x="253" y="127" type="line"/>
      <point x="175" y="-154" type="line"/>
      <point x="171" y="-166"/>
      <point x="171" y="-168"/>
      <point x="171" y="-172" type="curve" smooth="yes"/>
      <point x="171" y="-185"/>
      <point x="180" y="-194"/>
    </contour>
    <contour>
      <point x="310" y="170" type="line"/>
      <point x="354" y="331" type="line"/>
      <point x="545" y="331" type="line"/>
      <point x="501" y="170" type="line"/>
    </contour>
  </outline>
</glyph>
<glyph name="dollar" format="2">
  <advance width="513"/>
  <unicode hex="0024"/>
  <outline>
    <contour>
      <point x="272" y="674" type="line"/>
      <point x="338" y="670"/>
      <point x="404" y="640"/>
      <point x="422" y="570" type="curve"/>
      <point x="419" y="571"/>
      <point x="413" y="572"/>
      <point x="410" y="572" type="curve" smooth="yes"/>
      <point x="387" y="572"/>
      <point x="363" y="556"/>
      <point x="363" y="525" type="curve" smooth="yes"/>
      <point x="363" y="498"/>
      <point x="383" y="479"/>
      <point x="409" y="479" type="curve" smooth="yes"/>
      <point x="430" y="479"/>
      <point x="456" y="490"/>
      <point x="456" y="530" type="curve" smooth="yes"/>
      <point x="456" y="612"/>
      <point x="403" y="697"/>
      <point x="272" y="705" type="curve"/>
      <point x="272" y="750" type="line"/>
      <point x="241" y="750" type="line"/>
      <point x="241" y="704" type="line"/>
      <point x="126" y="695"/>
      <point x="57" y="603"/>
      <point x="57" y="513" type="curve" smooth="yes"/>
      <point x="57" y="454"/>
      <point x="83" y="409"/>
      <point x="115" y="378" type="curve" smooth="yes"/>
      <point x="151" y="342"/>
      <point x="176" y="336"/>
      <point x="241" y="318" type="curve"/>
      <point x="241" y="21" type="line"/>
      <point x="182" y="24"/>
      <point x="111" y="51"/>
      <point x="90" y="138" type="curve"/>
      <point x="91" y="138"/>
      <point x="98" y="136"/>
      <point x="103" y="136" type="curve" smooth="yes"/>
      <point x="127" y="136"/>
      <point x="150" y="152"/>
      <point x="150" y="183" type="curve" smooth="yes"/>
      <point x="150" y="210"/>
      <point x="130" y="229"/>
      <point x="104" y="229" type="curve" smooth="yes"/>
      <point x="86" y="229"/>
      <point x="57" y="220"/>
      <point x="57" y="178" type="curve" smooth="yes"/>
      <point x="57" y="86"/>
      <point x="114" y="-3"/>
      <point x="241" y="-11" type="curve"/>
      <point x="241" y="-56" type="line"/>
      <point x="272" y="-56" type="line"/>
      <point x="272" y="-10" type="line"/>
      <point x="383" y="0"/>
      <point x="456" y="94"/>
      <point x="456" y="195" type="curve" smooth="yes"/>
      <point x="456" y="269"/>
      <point x="419" y="318"/>
      <point x="403" y="336" type="curve" smooth="yes"/>
      <point x="358" y="384"/>
      <point x="319" y="392"/>
      <point x="272" y="403" type="curve"/>
    </contour>
    <contour>
      <point x="241" y="411" type="line"/>
      <point x="113" y="436"/>
      <point x="109" y="525"/>
      <point x="109" y="543" type="curve" smooth="yes"/>
      <point x="109" y="601"/>
      <point x="156" y="664"/>
      <point x="241" y="673" type="curve"/>
    </contour>
    <contour>
      <point x="272" y="311" type="line"/>
      <point x="398" y="285"/>
      <point x="404" y="186"/>
      <point x="404" y="165" type="curve" smooth="yes"/>
      <point x="404" y="95"/>
      <point x="351" y="29"/>
      <point x="272" y="21" type="curve"/>
    </contour>
  </outline>
</glyph>
<glyph name="parenleft" format="2">
  <advance width="399"/>
  <unicode hex="0028"/>
  <outline>
    <contour>
      <point x="329" y="-249" type="curve" smooth="yes"/>
      <point x="336" y="-249"/>
      <point x="341" y="-245"/>
      <point x="341" y="-238" type="curve" smooth="yes"/>
      <point x="341" y="-233"/>
      <point x="338" y="-230"/>
      <point x="332" y="-223" type="curve"/>
      <point x="203" y="-105"/>
      <point x="164" y="75"/>
      <point x="164" y="250" type="curve" smooth="yes"/>
      <point x="164" y="405"/>
      <point x="194" y="593"/>
      <point x="335" y="727" type="curve" smooth="yes"/>
      <point x="339" y="731"/>
      <point x="341" y="734"/>
      <point x="341" y="739" type="curve" smooth="yes"/>
      <point x="341" y="746"/>
      <point x="336" y="750"/>
      <point x="329" y="750" type="curve" smooth="yes"/>
      <point x="317" y="750"/>
      <point x="227" y="678"/>
      <point x="173" y="569" type="curve" smooth="yes"/>
      <point x="125" y="473"/>
      <point x="101" y="370"/>
      <point x="101" y="251" type="curve" smooth="yes"/>
      <point x="101" y="179"/>
      <point x="110" y="65"/>
      <point x="165" y="-53" type="curve" smooth="yes"/>
      <point x="224" y="-176"/>
      <point x="317" y="-249"/>
    </contour>
  </outline>
</glyph>
<glyph name="asterisk" format="2">
  <advance width="513"/>
  <unicode hex="002A"/>
  <outline>
    <contour>
      <point x="395" y="422" type="line" smooth="yes"/>
      <point x="408" y="412"/>
      <point x="410" y="412"/>
      <point x="417" y="412" type="curve" smooth="yes"/>
      <point x="435" y="412"/>
      <point x="446" y="428"/>
      <point x="446" y="442" type="curve" smooth="yes"/>
      <point x="446" y="460"/>
      <point x="434" y="465"/>
      <point x="424" y="470" type="curve" smooth="yes"/>
      <point x="283" y="534" type="line"/>
      <point x="424" y="599" type="line" smooth="yes"/>
      <point x="434" y="604"/>
      <point x="446" y="609"/>
      <point x="446" y="627" type="curve" smooth="yes"/>
      <point x="446" y="641"/>
      <point x="435" y="657"/>
      <point x="417" y="657" type="curve" smooth="yes"/>
      <point x="412" y="657"/>
      <point x="407" y="657"/>
      <point x="395" y="648" type="curve" smooth="yes"/>
      <point x="270" y="557" type="line"/>
      <point x="284" y="710" type="line"/>
      <point x="286" y="723" type="line"/>
      <point x="286" y="736"/>
      <point x="274" y="750"/>
      <point x="257" y="750" type="curve" smooth="yes"/>
      <point x="236" y="750"/>
      <point x="227" y="734"/>
      <point x="227" y="723" type="curve"/>
      <point x="229" y="710" type="line"/>
      <point x="243" y="558" type="line"/>
      <point x="118" y="647" type="line" smooth="yes"/>
      <point x="105" y="657"/>
      <point x="103" y="657"/>
      <point x="96" y="657" type="curve" smooth="yes"/>
      <point x="78" y="657"/>
      <point x="67" y="641"/>
      <point x="67" y="627" type="curve" smooth="yes"/>
      <point x="67" y="609"/>
      <point x="79" y="604"/>
      <point x="89" y="599" type="curve" smooth="yes"/>
      <point x="230" y="535" type="line"/>
      <point x="89" y="470" type="line" smooth="yes"/>
      <point x="79" y="465"/>
      <point x="67" y="460"/>
      <point x="67" y="442" type="curve" smooth="yes"/>
      <point x="67" y="428"/>
      <point x="78" y="412"/>
      <point x="96" y="412" type="curve" smooth="yes"/>
      <point x="101" y="412"/>
      <point x="106" y="412"/>
      <point x="118" y="421" type="curve" smooth="yes"/>
      <point x="243" y="512" type="line"/>
      <point x="229" y="359" type="line"/>
      <point x="227" y="346" type="line"/>
      <point x="227" y="333"/>
      <point x="239" y="319"/>
      <point x="256" y="319" type="curve" smooth="yes"/>
      <point x="277" y="319"/>
      <point x="286" y="335"/>
      <point x="286" y="346" type="curve"/>
      <point x="284" y="359" type="line"/>
      <point x="270" y="511" type="line"/>
    </contour>
  </outline>
</glyph>
<glyph name="hyphen" format="2">
  <advance width="342"/>
  <unicode hex="002D"/>
  <outline>
    <contour>
      <point x="285" y="185" type="line"/>
      <point x="285" y="247" type="line"/>
      <point x="11" y="247" type="line"/>
      <point x="11" y="185" type="line"/>
    </contour>
  </outline>
</glyph>
<glyph name="one" format="2">
  <advance width="513"/>
  <unicode hex="0031"/>
  <outline>
    <contour>
      <point x="99" y="0" type="line"/>
      <point x="135" y="3"/>
      <point x="224" y="3"/>
      <point x="265" y="3" type="curve" smooth="yes"/>
      <point x="306" y="3"/>
      <point x="396" y="3"/>
      <point x="432" y="0" type="curve"/>
      <point x="432" y="31" type="line"/>
      <point x="400" y="31" type="line" smooth="yes"/>
      <point x="307" y="31"/>
      <point x="304" y="43"/>
      <point x="304" y="80" type="curve" smooth="yes"/>
      <point x="304" y="639" type="line" smooth="yes"/>
      <point x="304" y="664"/>
      <point x="303" y="666"/>
      <point x="278" y="666" type="curve"/>
      <point x="216" y="602"/>
      <point x="124" y="602"/>
      <point x="93" y="602" type="curve" smooth="yes"/>
      <point x="93" y="602"/>
      <point x="93" y="602"/>
      <point x="93" y="602" type="curve"/>
      <point x="93" y="592"/>
      <point x="93" y="581"/>
      <point x="93" y="571" type="curve"/>
      <point x="112" y="571"/>
      <point x="173" y="571"/>
      <point x="227" y="597" type="curve"/>
      <point x="227" y="80" type="line" smooth="yes"/>
      <point x="227" y="43"/>
      <point x="224" y="31"/>
      <point x="131" y="31" type="curve" smooth="yes"/>
      <point x="99" y="31" type="line"/>
    </contour>
  </outline>
</glyph>
<glyph name="six" format="2">
  <advance width="513"/>
  <unicode hex="0036"/>
  <outline>
    <contour>
      <point x="134" y="331" type="curve"/>
      <point x="134" y="433"/>
      <point x="145" y="490"/>
      <point x="172" y="542" type="curve" smooth="yes"/>
      <point x="192" y="583"/>
      <point x="241" y="641"/>
      <point x="315" y="641" type="curve" smooth="yes"/>
      <point x="335" y="641"/>
      <point x="381" y="637"/>
      <point x="404" y="601" type="curve"/>
      <point x="367" y="601"/>
      <point x="351" y="582"/>
      <point x="351" y="555" type="curve" smooth="yes"/>
      <point x="351" y="529"/>
      <point x="369" y="509"/>
      <point x="397" y="509" type="curve" smooth="yes"/>
      <point x="425" y="509"/>
      <point x="444" y="527"/>
      <point x="444" y="557" type="curve" smooth="yes"/>
      <point x="444" y="613"/>
      <point x="404" y="666"/>
      <point x="313" y="666" type="curve" smooth="yes"/>
      <point x="184" y="666"/>
      <point x="43" y="539"/>
      <point x="43" y="316" type="curve" smooth="yes"/>
      <point x="43" y="45"/>
      <point x="165" y="-22"/>
      <point x="259" y="-22" type="curve" smooth="yes"/>
      <point x="370" y="-22"/>
      <point x="470" y="71"/>
      <point x="470" y="203" type="curve" smooth="yes"/>
      <point x="470" y="330"/>
      <point x="378" y="426"/>
      <point x="265" y="426" type="curve" smooth="yes"/>
      <point x="205" y="426"/>
      <point x="162" y="391"/>
    </contour>
    <contour>
      <point x="258" y="6" type="curve" smooth="yes"/>
      <point x="201" y="6"/>
      <point x="168" y="53"/>
      <point x="156" y="82" type="curve" smooth="yes"/>
      <point x="137" y="127"/>
      <point x="136" y="210"/>
      <point x="136" y="226" type="curve" smooth="yes"/>
      <point x="136" y="293"/>
      <point x="167" y="401"/>
      <point x="263" y="401" type="curve" smooth="yes"/>
      <point x="279" y="401"/>
      <point x="328" y="401"/>
      <point x="360" y="339" type="curve" smooth="yes"/>
      <point x="379" y="301"/>
      <point x="379" y="252"/>
      <point x="379" y="204" type="curve" smooth="yes"/>
      <point x="379" y="156"/>
      <point x="379" y="107"/>
      <point x="360" y="70" type="curve" smooth="yes"/>
      <point x="329" y="13"/>
      <point x="285" y="6"/>
    </contour>
  </outline>
</glyph>
<glyph name="nine" format="2">
  <advance width="513"/>
  <unicode hex="0039"/>
  <outline>
    <contour>
      <point x="379" y="315" type="curve"/>
      <point x="379" y="293" type="line" smooth="yes"/>
      <point x="379" y="49"/>
      <point x="268" y="6"/>
      <point x="211" y="6" type="curve" smooth="yes"/>
      <point x="188" y="6"/>
      <point x="137" y="10"/>
      <point x="111" y="43" type="curve"/>
      <point x="115" y="43" type="line"/>
      <point x="123" y="41"/>
      <point x="162" y="49"/>
      <point x="162" y="89" type="curve" smooth="yes"/>
      <point x="162" y="115"/>
      <point x="144" y="135"/>
      <point x="116" y="135" type="curve" smooth="yes"/>
      <point x="88" y="135"/>
      <point x="69" y="117"/>
      <point x="69" y="87" type="curve" smooth="yes"/>
      <point x="69" y="21"/>
      <point x="122" y="-22"/>
      <point x="212" y="-22" type="curve" smooth="yes"/>
      <point x="341" y="-22"/>
      <point x="470" y="110"/>
      <point x="470" y="329" type="curve" smooth="yes"/>
      <point x="470" y="600"/>
      <point x="350" y="666"/>
      <point x="260" y="666" type="curve" smooth="yes"/>
      <point x="145" y="666"/>
      <point x="43" y="573"/>
      <point x="43" y="442" type="curve" smooth="yes"/>
      <point x="43" y="315"/>
      <point x="135" y="219"/>
      <point x="248" y="219" type="curve" smooth="yes"/>
      <point x="321" y="219"/>
      <point x="361" y="272"/>
    </contour>
    <contour>
      <point x="250" y="244" type="curve" smooth="yes"/>
      <point x="234" y="244"/>
      <point x="185" y="244"/>
      <point x="153" y="306" type="curve" smooth="yes"/>
      <point x="134" y="344"/>
      <point x="134" y="393"/>
      <point x="134" y="441" type="curve" smooth="yes"/>
      <point x="134" y="489"/>
      <point x="134" y="539"/>
      <point x="155" y="577" type="curve" smooth="yes"/>
      <point x="185" y="628"/>
      <point x="224" y="641"/>
      <point x="260" y="641" type="curve" smooth="yes"/>
      <point x="328" y="641"/>
      <point x="355" y="572"/>
      <point x="359" y="562" type="curve" smooth="yes"/>
      <point x="373" y="525"/>
      <point x="377" y="464"/>
      <point x="377" y="421" type="curve" smooth="yes"/>
      <point x="377" y="348"/>
      <point x="344" y="244"/>
    </contour>
  </outline>
</glyph>
<glyph name="colon" format="2">
  <advance width="285"/>
  <unicode hex="003A"/>
  <outline>
    <contour>
      <point x="196" y="377" type="curve" smooth="yes"/>
      <point x="196" y="407"/>
      <point x="172" y="431"/>
      <point x="142" y="431" type="curve" smooth="yes"/>
      <point x="112" y="431"/>
      <point x="88" y="407"/>
      <point x="88" y="377" type="curve" smooth="yes"/>
      <point x="88" y="348"/>
      <point x="112" y="323"/>
      <point x="142" y="323" type="curve" smooth="yes"/>
      <point x="172" y="323"/>
      <point x="196" y="348"/>
    </contour>
    <contour>
      <point x="196" y="54" type="curve" smooth="yes"/>
      <point x="196" y="83"/>
      <point x="172" y="108"/>
      <point x="142" y="108" type="curve" smooth="yes"/>
      <point x="112" y="108"/>
      <point x="88" y="83"/>
      <point x="88" y="54" type="curve" smooth="yes"/>
      <point x="88" y="24"/>
      <point x="112" y="0"/>
      <point x="142" y="0" type="curve" smooth="yes"/>
      <point x="172" y="0"/>
      <point x="196" y="24"/>
    </contour>
  </outline>
</glyph>
<glyph name="semicolon" format="2">
  <advance width="285"/>
  <unicode hex="003B"/>
  <outline>
    <contour>
      <point x="142" y="323" type="curve" smooth="yes"/>
      <point x="172" y="323"/>
      <point x="196" y="348"/>
      <point x="196" y="377" type="curve" smooth="yes"/>
      <point x="196" y="407"/>
      <point x="172" y="431"/>
      <point x="142" y="431" type="curve" smooth="yes"/>
      <point x="112" y="431"/>
      <point x="88" y="407"/>
      <point x="88" y="377" type="curve" smooth="yes"/>
      <point x="88" y="348"/>
      <point x="112" y="323"/>
    </contour>
    <contour>
      <point x="115" y="-193" type="curve" smooth="yes"/>
      <point x="124" y="-193"/>
      <point x="199" y="-116"/>
      <point x="199" y="4" type="curve" smooth="yes"/>
      <point x="199" y="29"/>
      <point x="199" y="108"/>
      <point x="141" y="108" type="curve" smooth="yes"/>
      <point x="110" y="108"/>
      <point x="88" y="84"/>
      <point x="88" y="54" type="curve" smooth="yes"/>
      <point x="88" y="27"/>
      <point x="107" y="0"/>
      <point x="142" y="0" type="curve" smooth="yes"/>
      <point x="162" y="0"/>
      <point x="168" y="4"/>
      <point x="174" y="9" type="curve"/>
      <point x="174" y="-15"/>
      <point x="173" y="-95"/>
      <point x="110" y="-167" type="curve" smooth="yes"/>
      <point x="102" y="-176"/>
      <point x="102" y="-177"/>
      <point x="102" y="-181" type="curve" smooth="yes"/>
      <point x="102" y="-186"/>
      <point x="108" y="-193"/>
    </contour>
  </outline>
</glyph>
<glyph name="question" format="2">
  <advance width="485"/>
  <unicode hex="003F"/>
  <outline>
    <contour>
      <point x="214" y="205" type="line" smooth="yes"/>
      <point x="214" y="198"/>
      <point x="214" y="189"/>
      <point x="228" y="189" type="curve" smooth="yes"/>
      <point x="242" y="189"/>
      <point x="242" y="196"/>
      <point x="242" y="214" type="curve" smooth="yes"/>
      <point x="242" y="244" type="line" smooth="yes"/>
      <point x="242" y="340"/>
      <point x="294" y="413"/>
      <point x="369" y="465" type="curve" smooth="yes"/>
      <point x="400" y="487"/>
      <point x="427" y="518"/>
      <point x="427" y="569" type="curve" smooth="yes"/>
      <point x="427" y="630"/>
      <point x="384" y="705"/>
      <point x="232" y="705" type="curve" smooth="yes"/>
      <point x="121" y="705"/>
      <point x="57" y="638"/>
      <point x="57" y="572" type="curve" smooth="yes"/>
      <point x="57" y="537"/>
      <point x="81" y="523"/>
      <point x="104" y="523" type="curve" smooth="yes"/>
      <point x="130" y="523"/>
      <point x="150" y="542"/>
      <point x="150" y="569" type="curve" smooth="yes"/>
      <point x="150" y="585"/>
      <point x="142" y="616"/>
      <point x="98" y="616" type="curve"/>
      <point x="132" y="673"/>
      <point x="200" y="680"/>
      <point x="230" y="680" type="curve" smooth="yes"/>
      <point x="340" y="680"/>
      <point x="341" y="614"/>
      <point x="341" y="574" type="curve" smooth="yes"/>
      <point x="341" y="517"/>
      <point x="323" y="498"/>
      <point x="306" y="481" type="curve" smooth="yes"/>
      <point x="214" y="387"/>
      <point x="214" y="274"/>
      <point x="214" y="233" type="curve" smooth="yes"/>
    </contour>
    <contour>
      <point x="282" y="54" type="curve" smooth="yes"/>
      <point x="282" y="84"/>
      <point x="258" y="108"/>
      <point x="228" y="108" type="curve" smooth="yes"/>
      <point x="198" y="108"/>
      <point x="174" y="84"/>
      <point x="174" y="54" type="curve" smooth="yes"/>
      <point x="174" y="24"/>
      <point x="198" y="0"/>
      <point x="228" y="0" type="curve" smooth="yes"/>
      <point x="258" y="0"/>
      <point x="282" y="24"/>
    </contour>
  </outline>
</glyph>
<glyph name="D" format="2">
  <advance width="785"/>
  <unicode hex="0044"/>
  <outline>
    <contour>
      <point x="63" y="652" type="line" smooth="yes"/>
      <point x="140" y="652"/>
      <point x="142" y="641"/>
      <point x="142" y="604" type="curve" smooth="yes"/>
      <point x="142" y="79" type="line" smooth="yes"/>
      <point x="142" y="42"/>
      <point x="140" y="31"/>
      <point x="63" y="31" type="curve" smooth="yes"/>
      <point x="40" y="31" type="line"/>
      <point x="40" y="0" type="line"/>
      <point x="412" y="0" type="line" smooth="yes"/>
      <point x="585" y="0"/>
      <point x="727" y="148"/>
      <point x="727" y="336" type="curve" smooth="yes"/>
      <point x="727" y="526"/>
      <point x="588" y="683"/>
      <point x="412" y="683" type="curve" smooth="yes"/>
      <point x="40" y="683" type="line"/>
      <point x="40" y="652" type="line"/>
    </contour>
    <contour>
      <point x="278" y="31" type="line" smooth="yes"/>
      <point x="231" y="31"/>
      <point x="229" y="38"/>
      <point x="229" y="72" type="curve" smooth="yes"/>
      <point x="229" y="611" type="line" smooth="yes"/>
      <point x="229" y="645"/>
      <point x="231" y="652"/>
      <point x="278" y="652" type="curve" smooth="yes"/>
      <point x="385" y="652" type="line" smooth="yes"/>
      <point x="482" y="652"/>
      <point x="542" y="601"/>
      <point x="569" y="565" type="curve" smooth="yes"/>
      <point x="613" y="507"/>
      <point x="628" y="435"/>
      <point x="628" y="336" type="curve" smooth="yes"/>
      <point x="628" y="295"/>
      <point x="628" y="190"/>
      <point x="573" y="120" type="curve" smooth="yes"/>
      <point x="521" y="52"/>
      <point x="449" y="31"/>
      <point x="386" y="31" type="curve" smooth="yes"/>
    </contour>
  </outline>
</glyph>
<glyph name="H" format="2">
  <advance width="770"/>
  <unicode hex="0048"/>
  <outline>
    <contour>
      <point x="38" y="0" type="line"/>
      <point x="83" y="3"/>
      <point x="139" y="3"/>
      <point x="185" y="3" type="curve" smooth="yes"/>
      <point x="231" y="3"/>
      <point x="287" y="3"/>
      <point x="332" y="0" type="curve"/>
      <point x="332" y="31" type="line"/>
      <point x="309" y="31" type="line" smooth="yes"/>
      <point x="232" y="31"/>
      <point x="230" y="42"/>
      <point x="230" y="79" type="curve" smooth="yes"/>
      <point x="230" y="340" type="line"/>
      <point x="540" y="340" type="line"/>
      <point x="540" y="79" type="line" smooth="yes"/>
      <point x="540" y="42"/>
      <point x="538" y="31"/>
      <point x="461" y="31" type="curve" smooth="yes"/>
      <point x="438" y="31" type="line"/>
      <point x="438" y="0" type="line"/>
      <point x="483" y="3"/>
      <point x="539" y="3"/>
      <point x="585" y="3" type="curve" smooth="yes"/>
      <point x="631" y="3"/>
      <point x="687" y="3"/>
      <point x="732" y="0" type="curve"/>
      <point x="732" y="31" type="line"/>
      <point x="709" y="31" type="line" smooth="yes"/>
      <point x="632" y="31"/>
      <point x="630" y="42"/>
      <point x="630" y="79" type="curve" smooth="yes"/>
      <point x="630" y="604" type="line" smooth="yes"/>
      <point x="630" y="641"/>
      <point x="632" y="652"/>
      <point x="709" y="652" type="curve" smooth="yes"/>
      <point x="732" y="652" type="line"/>
      <point x="732" y="683" type="line"/>
      <point x="687" y="680"/>
      <point x="631" y="680"/>
      <point x="585" y="680" type="curve" smooth="yes"/>
      <point x="539" y="680"/>
      <point x="483" y="680"/>
      <point x="438" y="683" type="curve"/>
      <point x="438" y="652" type="line"/>
      <point x="461" y="652" type="line" smooth="yes"/>
      <point x="538" y="652"/>
      <point x="540" y="641"/>
      <point x="540" y="604" type="curve" smooth="yes"/>
      <point x="540" y="371" type="line"/>
      <point x="230" y="371" type="line"/>
      <point x="230" y="604" type="line" smooth="yes"/>
      <point x="230" y="641"/>
      <point x="232" y="652"/>
      <point x="309" y="652" type="curve" smooth="yes"/>
      <point x="332" y="652" type="line"/>
      <point x="332" y="683" type="line"/>
      <point x="287" y="680"/>
      <point x="231" y="680"/>
      <point x="185" y="680" type="curve" smooth="yes"/>
      <point x="139" y="680"/>
      <point x="83" y="680"/>
      <point x="38" y="683" type="curve"/>
      <point x="38" y="652" type="line"/>
      <point x="61" y="652" type="line" smooth="yes"/>
      <point x="138" y="652"/>
      <point x="140" y="641"/>
      <point x="140" y="604" type="curve" smooth="yes"/>
      <point x="140" y="79" type="line" smooth="yes"/>
      <point x="140" y="42"/>
      <point x="138" y="31"/>
      <point x="61" y="31" type="curve" smooth="yes"/>
      <point x="38" y="31" type="line"/>
    </contour>
  </outline>
</glyph>
<glyph name="I" format="2">
  <advance width="370"/>
  <unicode hex="0049"/>
  <outline>
    <contour>
      <point x="230" y="604" type="line" smooth="yes"/>
      <point x="230" y="640"/>
      <point x="232" y="652"/>
      <point x="312" y="652" type="curve" smooth="yes"/>
      <point x="337" y="652" type="line"/>
      <point x="337" y="683" type="line"/>
      <point x="296" y="680"/>
      <point x="228" y="680"/>
      <point x="185" y="680" type="curve" smooth="yes"/>
      <point x="142" y="680"/>
      <point x="74" y="680"/>
      <point x="33" y="683" type="curve"/>
      <point x="33" y="652" type="line"/>
      <point x="58" y="652" type="line" smooth="yes"/>
      <point x="138" y="652"/>
      <point x="140" y="640"/>
      <point x="140" y="604" type="curve" smooth="yes"/>
      <point x="140" y="79" type="line" smooth="yes"/>
      <point x="140" y="43"/>
      <point x="138" y="31"/>
      <point x="58" y="31" type="curve" smooth="yes"/>
      <point x="33" y="31" type="line"/>
      <point x="33" y="0" type="line"/>
      <point x="74" y="3"/>
      <point x="142" y="3"/>
      <point x="185" y="3" type="curve" smooth="yes"/>
      <point x="228" y="3"/>
      <point x="296" y="3"/>
      <point x="337" y="0" type="curve"/>
      <point x="337" y="31" type="line"/>
      <point x="312" y="31" type="line" smooth="yes"/>
      <point x="232" y="31"/>
      <point x="230" y="43"/>
      <point x="230" y="79" type="curve" smooth="yes"/>
    </contour>
  </outline>
</glyph>
<glyph name="K" format="2">
  <advance width="799"/>
  <unicode hex="004B"/>
  <outline>
    <contour>
      <point x="599" y="591" type="line" smooth="yes"/>
      <point x="662" y="650"/>
      <point x="724" y="651"/>
      <point x="741" y="652" type="curve"/>
      <point x="741" y="683" type="line"/>
      <point x="712" y="680"/>
      <point x="662" y="680"/>
      <point x="652" y="680" type="curve" smooth="yes"/>
      <point x="610" y="680"/>
      <point x="573" y="681"/>
      <point x="528" y="683" type="curve"/>
      <point x="528" y="652" type="line"/>
      <point x="556" y="651"/>
      <point x="571" y="638"/>
      <point x="571" y="619" type="curve" smooth="yes"/>
      <point x="571" y="611"/>
      <point x="568" y="603"/>
      <point x="563" y="596" type="curve"/>
      <point x="230" y="288" type="line"/>
      <point x="230" y="604" type="line" smooth="yes"/>
      <point x="230" y="641"/>
      <point x="232" y="652"/>
      <point x="309" y="652" type="curve" smooth="yes"/>
      <point x="332" y="652" type="line"/>
      <point x="332" y="683" type="line"/>
      <point x="287" y="680"/>
      <point x="231" y="680"/>
      <point x="185" y="680" type="curve" smooth="yes"/>
      <point x="139" y="680"/>
      <point x="83" y="680"/>
      <point x="38" y="683" type="curve"/>
      <point x="38" y="652" type="line"/>
      <point x="61" y="652" type="line" smooth="yes"/>
      <point x="138" y="652"/>
      <point x="140" y="641"/>
      <point x="140" y="604" type="curve" smooth="yes"/>
      <point x="140" y="79" type="line" smooth="yes"/>
      <point x="140" y="42"/>
      <point x="138" y="31"/>
      <point x="61" y="31" type="curve" smooth="yes"/>
      <point x="38" y="31" type="line"/>
      <point x="38" y="0" type="line"/>
      <point x="83" y="3"/>
      <point x="139" y="3"/>
      <point x="185" y="3" type="curve" smooth="yes"/>
      <point x="231" y="3"/>
      <point x="287" y="3"/>
      <point x="332" y="0" type="curve"/>
      <point x="332" y="31" type="line"/>
      <point x="309" y="31" type="line" smooth="yes"/>
      <point x="232" y="31"/>
      <point x="230" y="42"/>
      <point x="230" y="79" type="curve" smooth="yes"/>
      <point x="230" y="250" type="line"/>
      <point x="352" y="363" type="line"/>
      <point x="539" y="97" type="line" smooth="yes"/>
      <point x="547" y="86"/>
      <point x="556" y="71"/>
      <point x="556" y="60" type="curve" smooth="yes"/>
      <point x="556" y="31"/>
      <point x="517" y="31"/>
      <point x="499" y="31" type="curve"/>
      <point x="499" y="0" type="line"/>
      <point x="543" y="3"/>
      <point x="593" y="3"/>
      <point x="638" y="3" type="curve" smooth="yes"/>
      <point x="664" y="3"/>
      <point x="704" y="3"/>
      <point x="755" y="0" type="curve"/>
      <point x="755" y="31" type="line"/>
      <point x="692" y="31"/>
      <point x="678" y="40"/>
      <point x="646" y="86" type="curve" smooth="yes"/>
      <point x="412" y="418" type="line"/>
    </contour>
  </outline>
</glyph>
<glyph name="M" format="2">
  <advance width="941"/>
  <unicode hex="004D"/>
  <outline>
    <contour>
      <point x="714" y="650" type="line"/>
      <point x="715" y="649" type="line"/>
      <point x="715" y="79" type="line" smooth="yes"/>
      <point x="715" y="42"/>
      <point x="713" y="31"/>
      <point x="636" y="31" type="curve" smooth="yes"/>
      <point x="613" y="31" type="line"/>
      <point x="613" y="0" type="line"/>
      <point x="673" y="3"/>
      <point x="740" y="3"/>
      <point x="755" y="3" type="curve" smooth="yes"/>
      <point x="761" y="3"/>
      <point x="835" y="3"/>
      <point x="898" y="0" type="curve"/>
      <point x="898" y="31" type="line"/>
      <point x="875" y="31" type="line" smooth="yes"/>
      <point x="798" y="31"/>
      <point x="796" y="42"/>
      <point x="796" y="79" type="curve" smooth="yes"/>
      <point x="796" y="604" type="line" smooth="yes"/>
      <point x="796" y="641"/>
      <point x="798" y="652"/>
      <point x="875" y="652" type="curve" smooth="yes"/>
      <point x="898" y="652" type="line"/>
      <point x="898" y="683" type="line"/>
      <point x="730" y="683" type="line" smooth="yes"/>
      <point x="709" y="683"/>
      <point x="702" y="683"/>
      <point x="695" y="665" type="curve" smooth="yes"/>
      <point x="471" y="98" type="line"/>
      <point x="247" y="661" type="line" smooth="yes"/>
      <point x="239" y="681"/>
      <point x="238" y="683"/>
      <point x="211" y="683" type="curve" smooth="yes"/>
      <point x="43" y="683" type="line"/>
      <point x="43" y="652" type="line"/>
      <point x="66" y="652" type="line" smooth="yes"/>
      <point x="143" y="652"/>
      <point x="145" y="641"/>
      <point x="145" y="604" type="curve" smooth="yes"/>
      <point x="145" y="106" type="line" smooth="yes"/>
      <point x="145" y="79"/>
      <point x="145" y="31"/>
      <point x="43" y="31" type="curve"/>
      <point x="43" y="0" type="line"/>
      <point x="98" y="2"/>
      <point x="112" y="3"/>
      <point x="161" y="3" type="curve" smooth="yes"/>
      <point x="209" y="3"/>
      <point x="224" y="2"/>
      <point x="278" y="0" type="curve"/>
      <point x="278" y="31" type="line"/>
      <point x="176" y="31"/>
      <point x="176" y="79"/>
      <point x="176" y="106" type="curve" smooth="yes"/>
      <point x="176" y="641" type="line"/>
      <point x="177" y="642" type="line"/>
      <point x="423" y="22" type="line" smooth="yes"/>
      <point x="428" y="9"/>
      <point x="432" y="0"/>
      <point x="444" y="0" type="curve" smooth="yes"/>
      <point x="455" y="0"/>
      <point x="460" y="9"/>
      <point x="464" y="18" type="curve" smooth="yes"/>
    </contour>
  </outline>
</glyph>
<glyph name="O" format="2">
  <advance width="799"/>
  <unicode hex="004F"/>
  <outline>
    <contour>
      <point x="741" y="339" type="curve" smooth="yes"/>
      <point x="741" y="543"/>
      <point x="586" y="705"/>
      <point x="399" y="705" type="curve" smooth="yes"/>
      <point x="212" y="705"/>
      <point x="57" y="542"/>
      <point x="57" y="339" type="curve" smooth="yes"/>
      <point x="57" y="136"/>
      <point x="213" y="-22"/>
      <point x="399" y="-22" type="curve" smooth="yes"/>
      <point x="585" y="-22"/>
      <point x="741" y="136"/>
    </contour>
    <contour>
      <point x="399" y="8" type="curve" smooth="yes"/>
      <point x="298" y="8"/>
      <point x="159" y="96"/>
      <point x="159" y="354" type="curve" smooth="yes"/>
      <point x="159" y="598"/>
      <point x="302" y="677"/>
      <point x="399" y="677" type="curve" smooth="yes"/>
      <point x="496" y="677"/>
      <point x="639" y="598"/>
      <point x="639" y="354" type="curve" smooth="yes"/>
      <point x="639" y="96"/>
      <point x="500" y="8"/>
    </contour>
  </outline>
</glyph>
<glyph name="R" format="2">
  <advance width="756"/>
  <unicode hex="0052"/>
  <outline>
    <contour>
      <point x="40" y="0" type="line"/>
      <point x="87" y="3"/>
      <point x="137" y="3"/>
      <point x="185" y="3" type="curve" smooth="yes"/>
      <point x="233" y="3"/>
      <point x="283" y="3"/>
      <point x="331" y="0" type="curve"/>
      <point x="331" y="31" type="line"/>
      <point x="308" y="31" type="line" smooth="yes"/>
      <point x="231" y="31"/>
      <point x="229" y="42"/>
      <point x="229" y="79" type="curve" smooth="yes"/>
      <point x="229" y="329" type="line"/>
      <point x="349" y="329" type="line" smooth="yes"/>
      <point x="403" y="329"/>
      <point x="434" y="310"/>
      <point x="457" y="287" type="curve"/>
      <point x="487" y="250"/>
      <point x="487" y="235"/>
      <point x="487" y="164" type="curve" smooth="yes"/>
      <point x="487" y="97"/>
      <point x="487" y="53"/>
      <point x="535" y="15" type="curve" smooth="yes"/>
      <point x="582" y="-22"/>
      <point x="642" y="-22"/>
      <point x="653" y="-22" type="curve" smooth="yes"/>
      <point x="737" y="-22"/>
      <point x="752" y="65"/>
      <point x="752" y="89" type="curve" smooth="yes"/>
      <point x="752" y="95"/>
      <point x="752" y="107"/>
      <point x="738" y="107" type="curve" smooth="yes"/>
      <point x="725" y="107"/>
      <point x="725" y="98"/>
      <point x="724" y="90" type="curve" smooth="yes"/>
      <point x="719" y="27"/>
      <point x="688" y="3"/>
      <point x="657" y="3" type="curve" smooth="yes"/>
      <point x="625" y="3"/>
      <point x="614" y="23"/>
      <point x="606" y="40" type="curve"/>
      <point x="597" y="62"/>
      <point x="588" y="130"/>
      <point x="582" y="175" type="curve" smooth="yes"/>
      <point x="574" y="237"/>
      <point x="565" y="304"/>
      <point x="454" y="339" type="curve"/>
      <point x="549" y="366"/>
      <point x="627" y="425"/>
      <point x="627" y="503" type="curve" smooth="yes"/>
      <point x="627" y="602"/>
      <point x="506" y="683"/>
      <point x="359" y="683" type="curve" smooth="yes"/>
      <point x="40" y="683" type="line"/>
      <point x="40" y="652" type="line"/>
      <point x="63" y="652" type="line" smooth="yes"/>
      <point x="140" y="652"/>
      <point x="142" y="641"/>
      <point x="142" y="604" type="curve" smooth="yes"/>
      <point x="142" y="79" type="line" smooth="yes"/>
      <point x="142" y="42"/>
      <point x="140" y="31"/>
      <point x="63" y="31" type="curve" smooth="yes"/>
      <point x="40" y="31" type="line"/>
    </contour>
    <contour>
      <point x="229" y="354" type="line"/>
      <point x="229" y="611" type="line" smooth="yes"/>
      <point x="229" y="637"/>
      <point x="231" y="646"/>
      <point x="250" y="650" type="curve" smooth="yes"/>
      <point x="259" y="652"/>
      <point x="291" y="652"/>
      <point x="312" y="652" type="curve" smooth="yes"/>
      <point x="398" y="652"/>
      <point x="525" y="652"/>
      <point x="525" y="503" type="curve" smooth="yes"/>
      <point x="525" y="417"/>
      <point x="481" y="354"/>
      <point x="345" y="354" type="curve" smooth="yes"/>
    </contour>
  </outline>
</glyph>
<glyph name="U" format="2">
  <advance width="770"/>
  <unicode hex="0055"/>
  <outline>
    <contour>
      <point x="140" y="230" type="line" smooth="yes"/>
      <point x="140" y="84"/>
      <point x="261" y="-22"/>
      <point x="399" y="-22" type="curve" smooth="yes"/>
      <point x="546" y="-22"/>
      <point x="630" y="115"/>
      <point x="630" y="215" type="curve" smooth="yes"/>
      <point x="630" y="575" type="line" smooth="yes"/>
      <point x="630" y="605"/>
      <point x="630" y="652"/>
      <point x="732" y="652" type="curve"/>
      <point x="732" y="683" type="line"/>
      <point x="678" y="681"/>
      <point x="663" y="680"/>
      <point x="615" y="680" type="curve" smooth="yes"/>
      <point x="566" y="680"/>
      <point x="553" y="681"/>
      <point x="497" y="683" type="curve"/>
      <point x="497" y="652" type="line"/>
      <point x="599" y="652"/>
      <point x="599" y="604"/>
      <point x="599" y="577" type="curve" smooth="yes"/>
      <point x="599" y="230" type="line" smooth="yes"/>
      <point x="599" y="94"/>
      <point x="501" y="9"/>
      <point x="401" y="9" type="curve" smooth="yes"/>
      <point x="343" y="9"/>
      <point x="230" y="44"/>
      <point x="230" y="224" type="curve" smooth="yes"/>
      <point x="230" y="604" type="line" smooth="yes"/>
      <point x="230" y="641"/>
      <point x="232" y="652"/>
      <point x="309" y="652" type="curve" smooth="yes"/>
      <point x="332" y="652" type="line"/>
      <point x="332" y="683" type="line"/>
      <point x="287" y="680"/>
      <point x="231" y="680"/>
      <point x="185" y="680" type="curve" smooth="yes"/>
      <point x="139" y="680"/>
      <point x="83" y="680"/>
      <point x="38" y="683" type="curve"/>
      <point x="38" y="652" type="line"/>
      <point x="61" y="652" type="line" smooth="yes"/>
      <point x="138" y="652"/>
      <point x="140" y="641"/>
      <point x="140" y="604" type="curve" smooth="yes"/>
    </contour>
  </outline>
</glyph>
<glyph name="Y" format="2">
  <advance width="770"/>
  <unicode hex="0059"/>
  <outline>
    <contour>
      <point x="419" y="315" type="line"/>
      <point x="231" y="607" type="line" smooth="yes"/>
      <point x="225" y="617"/>
      <point x="222" y="622"/>
      <point x="222" y="627" type="curve" smooth="yes"/>
      <point x="222" y="651"/>
      <point x="259" y="652"/>
      <point x="290" y="652" type="curve"/>
      <point x="290" y="683" type="line"/>
      <point x="249" y="680"/>
      <point x="188" y="680"/>
      <point x="145" y="680" type="curve" smooth="yes"/>
      <point x="99" y="680"/>
      <point x="96" y="680"/>
      <point x="13" y="683" type="curve"/>
      <point x="13" y="652" type="line"/>
      <point x="30" y="652" type="line" smooth="yes"/>
      <point x="90" y="652"/>
      <point x="104" y="644"/>
      <point x="122" y="616" type="curve" smooth="yes"/>
      <point x="342" y="273" type="line"/>
      <point x="342" y="79" type="line" smooth="yes"/>
      <point x="342" y="42"/>
      <point x="340" y="31"/>
      <point x="263" y="31" type="curve" smooth="yes"/>
      <point x="240" y="31" type="line"/>
      <point x="240" y="0" type="line"/>
      <point x="287" y="3"/>
      <point x="337" y="3"/>
      <point x="385" y="3" type="curve" smooth="yes"/>
      <point x="433" y="3"/>
      <point x="483" y="3"/>
      <point x="531" y="0" type="curve"/>
      <point x="531" y="31" type="line"/>
      <point x="508" y="31" type="line" smooth="yes"/>
      <point x="432" y="31"/>
      <point x="429" y="42"/>
      <point x="429" y="78" type="curve" smooth="yes"/>
      <point x="429" y="273" type="line"/>
      <point x="627" y="583" type="line" smooth="yes"/>
      <point x="647" y="615"/>
      <point x="678" y="651"/>
      <point x="757" y="652" type="curve"/>
      <point x="757" y="683" type="line"/>
      <point x="722" y="680"/>
      <point x="693" y="680"/>
      <point x="659" y="680" type="curve" smooth="yes"/>
      <point x="624" y="680"/>
      <point x="602" y="681"/>
      <point x="546" y="683" type="curve"/>
      <point x="546" y="652" type="line"/>
      <point x="582" y="652"/>
      <point x="601" y="636"/>
      <point x="601" y="613" type="curve" smooth="yes"/>
      <point x="601" y="601"/>
      <point x="598" y="596"/>
      <point x="590" y="584" type="curve" smooth="yes"/>
    </contour>
  </outline>
</glyph>
<glyph name="a" format="2">
  <advance width="513"/>
  <unicode hex="0061"/>
  <outline>
    <contour>
      <point x="342" y="72" type="curve"/>
      <point x="347" y="30"/>
      <point x="376" y="-6"/>
      <point x="419" y="-6" type="curve" smooth="yes"/>
      <point x="444" y="-6"/>
      <point x="507" y="9"/>
      <point x="507" y="89" type="curve" smooth="yes"/>
      <point x="507" y="145" type="line"/>
      <point x="479" y="145" type="line"/>
      <point x="479" y="90" type="line" smooth="yes"/>
      <point x="479" y="79"/>
      <point x="479" y="29"/>
      <point x="443" y="29" type="curve" smooth="yes"/>
      <point x="407" y="29"/>
      <point x="407" y="77"/>
      <point x="407" y="93" type="curve" smooth="yes"/>
      <point x="407" y="268" type="line" smooth="yes"/>
      <point x="407" y="325"/>
      <point x="407" y="359"/>
      <point x="362" y="400" type="curve" smooth="yes"/>
      <point x="325" y="433"/>
      <point x="277" y="448"/>
      <point x="227" y="448" type="curve" smooth="yes"/>
      <point x="143" y="448"/>
      <point x="73" y="406"/>
      <point x="73" y="342" type="curve" smooth="yes"/>
      <point x="73" y="311"/>
      <point x="94" y="294"/>
      <point x="120" y="294" type="curve" smooth="yes"/>
      <point x="147" y="294"/>
      <point x="166" y="314"/>
      <point x="166" y="340" type="curve" smooth="yes"/>
      <point x="166" y="383"/>
      <point x="122" y="388"/>
      <point x="121" y="388" type="curve"/>
      <point x="148" y="414"/>
      <point x="196" y="423"/>
      <point x="225" y="423" type="curve" smooth="yes"/>
      <point x="276" y="423"/>
      <point x="333" y="385"/>
      <point x="333" y="297" type="curve" smooth="yes"/>
      <point x="333" y="264" type="line"/>
      <point x="279" y="262"/>
      <point x="204" y="257"/>
      <point x="137" y="225" type="curve" smooth="yes"/>
      <point x="65" y="190"/>
      <point x="43" y="138"/>
      <point x="43" y="98" type="curve" smooth="yes"/>
      <point x="43" y="16"/>
      <point x="140" y="-11"/>
      <point x="207" y="-11" type="curve" smooth="yes"/>
      <point x="290" y="-11"/>
      <point x="328" y="44"/>
    </contour>
    <contour>
      <point x="333" y="141" type="line" smooth="yes"/>
      <point x="333" y="44"/>
      <point x="258" y="14"/>
      <point x="214" y="14" type="curve" smooth="yes"/>
      <point x="167" y="14"/>
      <point x="123" y="48"/>
      <point x="123" y="98" type="curve" smooth="yes"/>
      <point x="123" y="164"/>
      <point x="180" y="234"/>
      <point x="333" y="240" type="curve"/>
    </contour>
  </outline>
</glyph>
<glyph name="b" format="2">
  <advance width="570"/>
  <unicode hex="0062"/>
  <outline>
    <contour>
      <point x="178" y="380" type="curve"/>
      <point x="178" y="694" type="line"/>
      <point x="30" y="683" type="line"/>
      <point x="30" y="652" type="line"/>
      <point x="98" y="652"/>
      <point x="107" y="645"/>
      <point x="107" y="596" type="curve" smooth="yes"/>
      <point x="107" y="0" type="line"/>
      <point x="135" y="0" type="line"/>
      <point x="172" y="61" type="line"/>
      <point x="203" y="17"/>
      <point x="253" y="-11"/>
      <point x="307" y="-11" type="curve" smooth="yes"/>
      <point x="426" y="-11"/>
      <point x="536" y="85"/>
      <point x="536" y="216" type="curve" smooth="yes"/>
      <point x="536" y="341"/>
      <point x="437" y="442"/>
      <point x="317" y="442" type="curve" smooth="yes"/>
      <point x="249" y="442"/>
      <point x="202" y="407"/>
    </contour>
    <contour>
      <point x="450" y="217" type="curve" smooth="yes"/>
      <point x="450" y="170"/>
      <point x="444" y="117"/>
      <point x="418" y="77" type="curve" smooth="yes"/>
      <point x="396" y="45"/>
      <point x="355" y="14"/>
      <point x="302" y="14" type="curve" smooth="yes"/>
      <point x="257" y="14"/>
      <point x="219" y="38"/>
      <point x="195" y="75" type="curve" smooth="yes"/>
      <point x="181" y="96"/>
      <point x="181" y="97"/>
      <point x="181" y="116" type="curve" smooth="yes"/>
      <point x="181" y="319" type="line" smooth="yes"/>
      <point x="181" y="338"/>
      <point x="181" y="339"/>
      <point x="192" y="355" type="curve" smooth="yes"/>
      <point x="226" y="401"/>
      <point x="275" y="417"/>
      <point x="313" y="417" type="curve" smooth="yes"/>
      <point x="356" y="417"/>
      <point x="396" y="393"/>
      <point x="422" y="351" type="curve" smooth="yes"/>
      <point x="448" y="308"/>
      <point x="450" y="249"/>
    </contour>
  </outline>
</glyph>
<glyph name="d" format="2">
  <advance width="570"/>
  <unicode hex="0064"/>
  <outline>
    <contour>
      <point x="389" y="53" type="curve"/>
      <point x="389" y="-11" type="line"/>
      <point x="540" y="0" type="line"/>
      <point x="540" y="31" type="line"/>
      <point x="472" y="31"/>
      <point x="463" y="38"/>
      <point x="463" y="87" type="curve" smooth="yes"/>
      <point x="463" y="694" type="line"/>
      <point x="315" y="683" type="line"/>
      <point x="315" y="652" type="line"/>
      <point x="383" y="652"/>
      <point x="392" y="645"/>
      <point x="392" y="596" type="curve" smooth="yes"/>
      <point x="392" y="383" type="line"/>
      <point x="387" y="389"/>
      <point x="342" y="442"/>
      <point x="264" y="442" type="curve" smooth="yes"/>
      <point x="141" y="442"/>
      <point x="34" y="344"/>
      <point x="34" y="215" type="curve" smooth="yes"/>
      <point x="34" y="90"/>
      <point x="134" y="-11"/>
      <point x="253" y="-11" type="curve" smooth="yes"/>
      <point x="326" y="-11"/>
      <point x="371" y="32"/>
    </contour>
    <contour>
      <point x="120" y="214" type="curve" smooth="yes"/>
      <point x="120" y="261"/>
      <point x="126" y="314"/>
      <point x="152" y="354" type="curve" smooth="yes"/>
      <point x="174" y="386"/>
      <point x="215" y="417"/>
      <point x="268" y="417" type="curve" smooth="yes"/>
      <point x="310" y="417"/>
      <point x="350" y="396"/>
      <point x="377" y="358" type="curve" smooth="yes"/>
      <point x="389" y="342"/>
      <point x="389" y="341"/>
      <point x="389" y="322" type="curve" smooth="yes"/>
      <point x="389" y="120" type="line" smooth="yes"/>
      <point x="389" y="102"/>
      <point x="389" y="99"/>
      <point x="374" y="78" type="curve" smooth="yes"/>
      <point x="343" y="33"/>
      <point x="297" y="14"/>
      <point x="257" y="14" type="curve" smooth="yes"/>
      <point x="214" y="14"/>
      <point x="174" y="38"/>
      <point x="148" y="80" type="curve" smooth="yes"/>
      <point x="122" y="123"/>
      <point x="120" y="182"/>
    </contour>
  </outline>
</glyph>
<glyph name="f" format="2">
  <advance width="314"/>
  <unicode hex="0066"/>
  <outline>
    <contour>
      <point x="113" y="77" type="line" smooth="yes"/>
      <point x="113" y="31"/>
      <point x="102" y="31"/>
      <point x="36" y="31" type="curve"/>
      <point x="36" y="31" type="line"/>
      <point x="36" y="0" type="line"/>
      <point x="89" y="2"/>
      <point x="102" y="3"/>
      <point x="153" y="3" type="curve" smooth="yes"/>
      <point x="193" y="3"/>
      <point x="217" y="2"/>
      <point x="280" y="0" type="curve"/>
      <point x="280" y="31" type="line"/>
      <point x="260" y="31" type="line" smooth="yes"/>
      <point x="187" y="31"/>
      <point x="184" y="42"/>
      <point x="184" y="79" type="curve" smooth="yes"/>
      <point x="184" y="400" type="line"/>
      <point x="300" y="400" type="line"/>
      <point x="300" y="431" type="line"/>
      <point x="181" y="431" type="line"/>
      <point x="181" y="544" type="line" smooth="yes"/>
      <point x="181" y="635"/>
      <point x="230" y="680"/>
      <point x="273" y="680" type="curve" smooth="yes"/>
      <point x="283" y="680"/>
      <point x="293" y="678"/>
      <point x="303" y="674" type="curve"/>
      <point x="293" y="670"/>
      <point x="277" y="658"/>
      <point x="277" y="633" type="curve" smooth="yes"/>
      <point x="277" y="607"/>
      <point x="296" y="589"/>
      <point x="321" y="589" type="curve" smooth="yes"/>
      <point x="348" y="589"/>
      <point x="366" y="608"/>
      <point x="366" y="634" type="curve" smooth="yes"/>
      <point x="366" y="672"/>
      <point x="328" y="705"/>
      <point x="273" y="705" type="curve" smooth="yes"/>
      <point x="195" y="705"/>
      <point x="113" y="646"/>
      <point x="113" y="546" type="curve" smooth="yes"/>
      <point x="113" y="431" type="line"/>
      <point x="34" y="431" type="line"/>
      <point x="34" y="400" type="line"/>
      <point x="113" y="400" type="line"/>
    </contour>
  </outline>
</glyph>
<glyph name="g" format="2">
  <advance width="513"/>
  <unicode hex="0067"/>
  <outline>
    <contour>
      <point x="256" y="-206" type="curve" smooth="yes"/>
      <point x="379" y="-206"/>
      <point x="484" y="-153"/>
      <point x="484" y="-76" type="curve" smooth="yes"/>
      <point x="484" y="-35"/>
      <point x="465" y="9"/>
      <point x="428" y="33" type="curve" smooth="yes"/>
      <point x="372" y="68"/>
      <point x="314" y="68"/>
      <point x="219" y="68" type="curve" smooth="yes"/>
      <point x="199" y="68"/>
      <point x="167" y="68"/>
      <point x="159" y="70" type="curve" smooth="yes"/>
      <point x="130" y="76"/>
      <point x="111" y="103"/>
      <point x="111" y="135" type="curve" smooth="yes"/>
      <point x="111" y="151"/>
      <point x="116" y="166"/>
      <point x="125" y="179" type="curve"/>
      <point x="150" y="163"/>
      <point x="181" y="148"/>
      <point x="227" y="148" type="curve" smooth="yes"/>
      <point x="322" y="148"/>
      <point x="394" y="216"/>
      <point x="394" y="295" type="curve" smooth="yes"/>
      <point x="394" y="344"/>
      <point x="366" y="378"/>
      <point x="353" y="392" type="curve"/>
      <point x="393" y="428"/>
      <point x="440" y="428"/>
      <point x="452" y="428" type="curve"/>
      <point x="447" y="425"/>
      <point x="439" y="420"/>
      <point x="439" y="402" type="curve" smooth="yes"/>
      <point x="439" y="391"/>
      <point x="446" y="372"/>
      <point x="469" y="372" type="curve" smooth="yes"/>
      <point x="483" y="372"/>
      <point x="499" y="382"/>
      <point x="499" y="403" type="curve" smooth="yes"/>
      <point x="499" y="422"/>
      <point x="485" y="453"/>
      <point x="445" y="453" type="curve" smooth="yes"/>
      <point x="416" y="453"/>
      <point x="371" y="442"/>
      <point x="336" y="406" type="curve"/>
      <point x="309" y="428"/>
      <point x="270" y="442"/>
      <point x="228" y="442" type="curve" smooth="yes"/>
      <point x="133" y="442"/>
      <point x="61" y="374"/>
      <point x="61" y="295" type="curve" smooth="yes"/>
      <point x="61" y="244"/>
      <point x="91" y="208"/>
      <point x="107" y="193" type="curve"/>
      <point x="105" y="191"/>
      <point x="77" y="156"/>
      <point x="77" y="110" type="curve" smooth="yes"/>
      <point x="77" y="76"/>
      <point x="93" y="40"/>
      <point x="120" y="22" type="curve"/>
      <point x="69" y="6"/>
      <point x="29" y="-31"/>
      <point x="29" y="-78" type="curve" smooth="yes"/>
      <point x="29" y="-149"/>
      <point x="128" y="-206"/>
    </contour>
    <contour>
      <point x="227" y="175" type="curve" smooth="yes"/>
      <point x="138" y="175"/>
      <point x="138" y="273"/>
      <point x="138" y="295" type="curve" smooth="yes"/>
      <point x="138" y="322"/>
      <point x="140" y="356"/>
      <point x="157" y="380" type="curve" smooth="yes"/>
      <point x="172" y="400"/>
      <point x="199" y="415"/>
      <point x="227" y="415" type="curve" smooth="yes"/>
      <point x="317" y="415"/>
      <point x="317" y="318"/>
      <point x="317" y="295" type="curve" smooth="yes"/>
      <point x="317.0" y="278.9"/>
      <point x="317.0" y="226.54"/>
      <point x="286.13" y="196.57299999999998" type="curve" smooth="yes"/>
      <point x="272.9" y="183.73000000000002"/>
      <point x="253.99999999999997" y="175.00000000000003"/>
    </contour>
    <contour>
      <point x="257" y="-179" type="curve" smooth="yes"/>
      <point x="159" y="-179"/>
      <point x="85" y="-132"/>
      <point x="85" y="-77" type="curve" smooth="yes"/>
      <point x="85.0" y="-66.16672"/>
      <point x="89.58437326399999" y="-32.41157368"/>
      <point x="119.23943695928818" y="-11.740815455233786" type="curve" smooth="yes"/>
      <point x="133.3828368064" y="-1.8823035423999954"/>
      <point x="153.22888" y="5.0000000000000036"/>
      <point x="181" y="5" type="curve" smooth="yes"/>
      <point x="273" y="5" type="line" smooth="yes"/>
      <point x="305" y="5"/>
      <point x="428" y="4"/>
      <point x="428" y="-77" type="curve" smooth="yes"/>
      <point x="428" y="-134"/>
      <point x="351" y="-179"/>
    </contour>
  </outline>
</glyph>
<glyph name="j" format="2">
  <advance width="314"/>
  <unicode hex="006A"/>
  <outline>
    <contour>
      <point x="147" y="344" type="curve" smooth="yes"/>
      <point x="147" y="-51" type="line" smooth="yes"/>
      <point x="147" y="-80"/>
      <point x="143" y="-180"/>
      <point x="75" y="-180" type="curve" smooth="yes"/>
      <point x="72" y="-180"/>
      <point x="46" y="-180"/>
      <point x="22" y="-168" type="curve"/>
      <point x="54" y="-158"/>
      <point x="54" y="-130"/>
      <point x="54" y="-124" type="curve" smooth="yes"/>
      <point x="54" y="-98"/>
      <point x="35" y="-78"/>
      <point x="8" y="-78" type="curve" smooth="yes"/>
      <point x="-21" y="-78"/>
      <point x="-39" y="-98"/>
      <point x="-39" y="-125" type="curve" smooth="yes"/>
      <point x="-39" y="-177"/>
      <point x="19" y="-205"/>
      <point x="76" y="-205" type="curve" smooth="yes"/>
      <point x="155" y="-205"/>
      <point x="218" y="-140"/>
      <point x="218" y="-48" type="curve" smooth="yes"/>
      <point x="218" y="442" type="line"/>
      <point x="62" y="431" type="line"/>
      <point x="62" y="400" type="line"/>
      <point x="138" y="400"/>
      <point x="147" y="393"/>
    </contour>
    <contour>
      <point x="218" y="616" type="curve" smooth="yes"/>
      <point x="218" y="646"/>
      <point x="194" y="670"/>
      <point x="164" y="670" type="curve" smooth="yes"/>
      <point x="134" y="670"/>
      <point x="110" y="646"/>
      <point x="110" y="616" type="curve" smooth="yes"/>
      <point x="110" y="586"/>
      <point x="134" y="562"/>
      <point x="164" y="562" type="curve" smooth="yes"/>
      <point x="194" y="562"/>
      <point x="218" y="586"/>
    </contour>
  </outline>
</glyph>
<glyph name="l" format="2">
  <advance width="285"/>
  <unicode hex="006C"/>
  <outline>
    <contour>
      <point x="184" y="694" type="line"/>
      <point x="36" y="683" type="line"/>
      <point x="36" y="652" type="line"/>
      <point x="104" y="652"/>
      <point x="113" y="645"/>
      <point x="113" y="596" type="curve" smooth="yes"/>
      <point x="113" y="77" type="line" smooth="yes"/>
      <point x="113" y="31"/>
      <point x="102" y="31"/>
      <point x="36" y="31" type="curve"/>
      <point x="36" y="31" type="line"/>
      <point x="36" y="0" type="line"/>
      <point x="83" y="2"/>
      <point x="102" y="3"/>
      <point x="148" y="3" type="curve" smooth="yes"/>
      <point x="195" y="3"/>
      <point x="212" y="2"/>
      <point x="261" y="0" type="curve"/>
      <point x="261" y="31" type="line"/>
      <point x="261" y="31" type="line"/>
      <point x="195" y="31"/>
      <point x="184" y="31"/>
      <point x="184" y="77" type="curve" smooth="yes"/>
    </contour>
  </outline>
</glyph>
<glyph name="m" format="2">
  <advance width="856"/>
  <unicode hex="006D"/>
  <outline>
    <contour>
      <point x="186" y="259" type="line" smooth="yes"/>
      <point x="186" y="367"/>
      <point x="264" y="417"/>
      <point x="324" y="417" type="curve" smooth="yes"/>
      <point x="379" y="417"/>
      <point x="397" y="378"/>
      <point x="397" y="308" type="curve" smooth="yes"/>
      <point x="397" y="77" type="line" smooth="yes"/>
      <point x="397" y="31"/>
      <point x="386" y="31"/>
      <point x="320" y="31" type="curve"/>
      <point x="320" y="0" type="line"/>
      <point x="367" y="2"/>
      <point x="386" y="3"/>
      <point x="434" y="3" type="curve" smooth="yes"/>
      <point x="482" y="3"/>
      <point x="495" y="2"/>
      <point x="548" y="0" type="curve"/>
      <point x="548" y="31" type="line"/>
      <point x="482" y="31"/>
      <point x="471" y="31"/>
      <point x="471" y="77" type="curve" smooth="yes"/>
      <point x="471" y="259" type="line" smooth="yes"/>
      <point x="471" y="367"/>
      <point x="549" y="417"/>
      <point x="609" y="417" type="curve" smooth="yes"/>
      <point x="664" y="417"/>
      <point x="682" y="378"/>
      <point x="682" y="308" type="curve" smooth="yes"/>
      <point x="682" y="77" type="line" smooth="yes"/>
      <point x="682" y="31"/>
      <point x="671" y="31"/>
      <point x="605" y="31" type="curve"/>
      <point x="605" y="0" type="line"/>
      <point x="652" y="2"/>
      <point x="671" y="3"/>
      <point x="719" y="3" type="curve" smooth="yes"/>
      <point x="767" y="3"/>
      <point x="780" y="2"/>
      <point x="833" y="0" type="curve"/>
      <point x="833" y="31" type="line"/>
      <point x="782" y="31"/>
      <point x="757" y="31"/>
      <point x="756" y="62" type="curve" smooth="yes"/>
      <point x="756" y="254" type="line" smooth="yes"/>
      <point x="756" y="341"/>
      <point x="756" y="369"/>
      <point x="723" y="406" type="curve" smooth="yes"/>
      <point x="702" y="430"/>
      <point x="662" y="442"/>
      <point x="616" y="442" type="curve" smooth="yes"/>
      <point x="544" y="442"/>
      <point x="495" y="400"/>
      <point x="467" y="347" type="curve"/>
      <point x="455" y="406"/>
      <point x="415" y="442"/>
      <point x="331" y="442" type="curve" smooth="yes"/>
      <point x="251" y="442"/>
      <point x="202" y="390"/>
      <point x="181" y="344" type="curve"/>
      <point x="180" y="344" type="line"/>
      <point x="180" y="442" type="line"/>
      <point x="35" y="431" type="line"/>
      <point x="35" y="400" type="line"/>
      <point x="103" y="400"/>
      <point x="112" y="393"/>
      <point x="112" y="344" type="curve" smooth="yes"/>
      <point x="112" y="77" type="line" smooth="yes"/>
      <point x="112" y="31"/>
      <point x="101" y="31"/>
      <point x="35" y="31" type="curve"/>
      <point x="35" y="0" type="line"/>
      <point x="82" y="2"/>
      <point x="101" y="3"/>
      <point x="149" y="3" type="curve" smooth="yes"/>
      <point x="197" y="3"/>
      <point x="210" y="2"/>
      <point x="263" y="0" type="curve"/>
      <point x="263" y="31" type="line"/>
      <point x="197" y="31"/>
      <point x="186" y="31"/>
      <point x="186" y="77" type="curve" smooth="yes"/>
    </contour>
  </outline>
</glyph>
<glyph name="o" format="2">
  <advance width="513"/>
  <unicode hex="006F"/>
  <outline>
    <contour>
      <point x="484" y="213" type="curve" smooth="yes"/>
      <point x="484" y="344"/>
      <point x="380" y="448"/>
      <point x="257" y="448" type="curve" smooth="yes"/>
      <point x="130" y="448"/>
      <point x="29" y="341"/>
      <point x="29" y="213" type="curve" smooth="yes"/>
      <point x="29" y="88"/>
      <point x="133" y="-11"/>
      <point x="256" y="-11" type="curve" smooth="yes"/>
      <point x="383" y="-11"/>
      <point x="484" y="90"/>
    </contour>
    <contour>
      <point x="257" y="17" type="curve" smooth="yes"/>
      <point x="207" y="17"/>
      <point x="165" y="42"/>
      <point x="142" y="81" type="curve" smooth="yes"/>
      <point x="116" y="123"/>
      <point x="115" y="176"/>
      <point x="115" y="222" type="curve" smooth="yes"/>
      <point x="115" y="259"/>
      <point x="115" y="316"/>
      <point x="140" y="357" type="curve" smooth="yes"/>
      <point x="170" y="408"/>
      <point x="220" y="423"/>
      <point x="256" y="423" type="curve" smooth="yes"/>
      <point x="313" y="423"/>
      <point x="354" y="391"/>
      <point x="374" y="357" type="curve" smooth="yes"/>
      <point x="397" y="315"/>
      <point x="398" y="264"/>
      <point x="398" y="222" type="curve" smooth="yes"/>
      <point x="398" y="185"/>
      <point x="398" y="127"/>
      <point x="373" y="83" type="curve" smooth="yes"/>
      <point x="345" y="37"/>
      <point x="299" y="17"/>
    </contour>
  </outline>
</glyph>
<glyph name="q" format="2">
  <advance width="542"/>
  <unicode hex="0071"/>
  <outline>
    <contour>
      <point x="400" y="354" type="line"/>
      <point x="353" y="433"/>
      <point x="296" y="442"/>
      <point x="261" y="442" type="curve" smooth="yes"/>
      <point x="143" y="442"/>
      <point x="34" y="346"/>
      <point x="34" y="215" type="curve" smooth="yes"/>
      <point x="34" y="88"/>
      <point x="136" y="-11"/>
      <point x="253" y="-11" type="curve" smooth="yes"/>
      <point x="295" y="-11"/>
      <point x="346" y="4"/>
      <point x="389" y="59" type="curve"/>
      <point x="389" y="-117" type="line" smooth="yes"/>
      <point x="389" y="-163"/>
      <point x="378" y="-163"/>
      <point x="312" y="-163" type="curve"/>
      <point x="312" y="-194" type="line"/>
      <point x="359" y="-192"/>
      <point x="378" y="-191"/>
      <point x="426" y="-191" type="curve" smooth="yes"/>
      <point x="474" y="-191"/>
      <point x="487" y="-192"/>
      <point x="540" y="-194" type="curve"/>
      <point x="540" y="-163" type="line"/>
      <point x="474" y="-163"/>
      <point x="463" y="-163"/>
      <point x="463" y="-117" type="curve" smooth="yes"/>
      <point x="463" y="442" type="line"/>
      <point x="438" y="442" type="line"/>
    </contour>
    <contour>
      <point x="392" y="138" type="line" smooth="yes"/>
      <point x="392" y="120"/>
      <point x="392" y="116"/>
      <point x="377" y="89" type="curve" smooth="yes"/>
      <point x="352" y="46"/>
      <point x="310" y="14"/>
      <point x="257" y="14" type="curve" smooth="yes"/>
      <point x="183" y="14"/>
      <point x="120" y="102"/>
      <point x="120" y="215" type="curve" smooth="yes"/>
      <point x="120" y="331"/>
      <point x="191" y="414"/>
      <point x="268" y="414" type="curve" smooth="yes"/>
      <point x="346" y="414"/>
      <point x="392" y="331"/>
      <point x="392" y="276" type="curve" smooth="yes"/>
    </contour>
  </outline>
</glyph>
<glyph name="r" format="2">
  <advance width="402"/>
  <unicode hex="0072"/>
  <outline>
    <contour>
      <point x="107" y="77" type="line" smooth="yes"/>
      <point x="107" y="31"/>
      <point x="96" y="31"/>
      <point x="30" y="31" type="curve"/>
      <point x="30" y="31" type="line"/>
      <point x="30" y="0" type="line"/>
      <point x="83" y="2"/>
      <point x="96" y="3"/>
      <point x="147" y="3" type="curve" smooth="yes"/>
      <point x="187" y="3"/>
      <point x="211" y="2"/>
      <point x="274" y="0" type="curve"/>
      <point x="274" y="31" type="line"/>
      <point x="254" y="31" type="line" smooth="yes"/>
      <point x="181" y="31"/>
      <point x="178" y="42"/>
      <point x="178" y="79" type="curve" smooth="yes"/>
      <point x="178" y="229" type="line" smooth="yes"/>
      <point x="178" y="270"/>
      <point x="189" y="417"/>
      <point x="303" y="417" type="curve"/>
      <point x="303" y="417"/>
      <point x="303" y="417"/>
      <point x="303" y="417" type="curve"/>
      <point x="303" y="416" type="line"/>
      <point x="301" y="415"/>
      <point x="285" y="403"/>
      <point x="285" y="379" type="curve" smooth="yes"/>
      <point x="285" y="352"/>
      <point x="306" y="335"/>
      <point x="329" y="335" type="curve" smooth="yes"/>
      <point x="350" y="335"/>
      <point x="373" y="350"/>
      <point x="373" y="380" type="curve" smooth="yes"/>
      <point x="373" y="412"/>
      <point x="343" y="442"/>
      <point x="298" y="442" type="curve" smooth="yes"/>
      <point x="238" y="442"/>
      <point x="196" y="400"/>
      <point x="173" y="338" type="curve"/>
      <point x="172" y="338" type="line"/>
      <point x="172" y="442" type="line"/>
      <point x="30" y="431" type="line"/>
      <point x="30" y="400" type="line"/>
      <point x="98" y="400"/>
      <point x="107" y="393"/>
      <point x="107" y="344" type="curve" smooth="yes"/>
    </contour>
  </outline>
</glyph>
<glyph name="s" format="2">
  <advance width="405"/>
  <unicode hex="0073"/>
  <outline>
    <contour>
      <point x="204" y="-11" type="curve" smooth="yes"/>
      <point x="327" y="-11"/>
      <point x="370" y="61"/>
      <point x="370" y="128" type="curve" smooth="yes"/>
      <point x="370" y="173"/>
      <point x="350" y="200"/>
      <point x="328" y="223" type="curve" smooth="yes"/>
      <point x="294" y="256"/>
      <point x="258" y="263"/>
      <point x="184" y="277" type="curve" smooth="yes"/>
      <point x="158" y="282"/>
      <point x="85" y="295"/>
      <point x="85" y="352" type="curve" smooth="yes"/>
      <point x="85" y="384"/>
      <point x="108" y="426"/>
      <point x="199" y="426" type="curve" smooth="yes"/>
      <point x="307" y="426"/>
      <point x="314" y="343"/>
      <point x="316" y="318" type="curve" smooth="yes"/>
      <point x="317" y="306"/>
      <point x="317" y="300"/>
      <point x="330" y="300" type="curve" smooth="yes"/>
      <point x="344" y="300"/>
      <point x="344" y="307"/>
      <point x="344" y="326" type="curve" smooth="yes"/>
      <point x="344" y="422" type="line" smooth="yes"/>
      <point x="344" y="439"/>
      <point x="344" y="448"/>
      <point x="332" y="448" type="curve" smooth="yes"/>
      <point x="327" y="448"/>
      <point x="325" y="448"/>
      <point x="312" y="436" type="curve" smooth="yes"/>
      <point x="310" y="434"/>
      <point x="301" y="425"/>
      <point x="295" y="420" type="curve"/>
      <point x="264" y="442"/>
      <point x="233" y="448"/>
      <point x="199" y="448" type="curve" smooth="yes"/>
      <point x="67" y="448"/>
      <point x="34" y="375"/>
      <point x="34" y="324" type="curve" smooth="yes"/>
      <point x="34" y="292"/>
      <point x="48" y="266"/>
      <point x="71" y="244" type="curve" smooth="yes"/>
      <point x="105" y="213"/>
      <point x="143" y="206"/>
      <point x="194" y="197" type="curve" smooth="yes"/>
      <point x="245" y="187"/>
      <point x="262" y="184"/>
      <point x="284" y="167" type="curve" smooth="yes"/>
      <point x="294" y="159"/>
      <point x="319" y="140"/>
      <point x="319" y="102" type="curve" smooth="yes"/>
      <point x="319" y="14"/>
      <point x="218" y="14"/>
      <point x="204" y="14" type="curve" smooth="yes"/>
      <point x="102" y="14"/>
      <point x="76" y="99"/>
      <point x="64" y="153" type="curve"/>
      <point x="61" y="163"/>
      <point x="60" y="169"/>
      <point x="48" y="169" type="curve" smooth="yes"/>
      <point x="34" y="169"/>
      <point x="34" y="161"/>
      <point x="34" y="143" type="curve" smooth="yes"/>
      <point x="34" y="15" type="line" smooth="yes"/>
      <point x="34" y="-2"/>
      <point x="34" y="-11"/>
      <point x="46" y="-11" type="curve" smooth="yes"/>
      <point x="52" y="-11"/>
      <point x="54" y="-11"/>
      <point x="71" y="9" type="curve" smooth="yes"/>
      <point x="91" y="33" type="line"/>
      <point x="133" y="-8"/>
      <point x="179" y="-11"/>
    </contour>
  </outline>
</glyph>
<glyph name="t" format="2">
  <advance width="399"/>
  <unicode hex="0074"/>
  <outline>
    <contour>
      <point x="325" y="400" type="line"/>
      <point x="325" y="431" type="line"/>
      <point x="180" y="431" type="line"/>
      <point x="180" y="615" type="line"/>
      <point x="152" y="615" type="line"/>
      <point x="151" y="531"/>
      <point x="116" y="428"/>
      <point x="19" y="425" type="curve"/>
      <point x="19" y="400" type="line"/>
      <point x="106" y="400" type="line"/>
      <point x="106" y="124" type="line" smooth="yes"/>
      <point x="106" y="12"/>
      <point x="187" y="-11"/>
      <point x="240" y="-11" type="curve" smooth="yes"/>
      <point x="307" y="-11"/>
      <point x="342" y="53"/>
      <point x="342" y="124" type="curve" smooth="yes"/>
      <point x="342" y="181" type="line"/>
      <point x="314" y="181" type="line"/>
      <point x="314" y="127" type="line" smooth="yes"/>
      <point x="314" y="53"/>
      <point x="283" y="17"/>
      <point x="247" y="17" type="curve" smooth="yes"/>
      <point x="180" y="17"/>
      <point x="180" y="105"/>
      <point x="180" y="123" type="curve" smooth="yes"/>
      <point x="180" y="400" type="line"/>
    </contour>
  </outline>
</glyph>
<glyph name="u" format="2">
  <advance width="570"/>
  <unicode hex="0075"/>
  <outline>
    <contour>
      <point x="158" y="16" type="curve" smooth="yes"/>
      <point x="187" y="-4"/>
      <point x="228" y="-11"/>
      <point x="268" y="-11" type="curve" smooth="yes"/>
      <point x="320" y="-11"/>
      <point x="369" y="12"/>
      <point x="398" y="72" type="curve"/>
      <point x="399" y="72" type="line"/>
      <point x="399" y="-11" type="line"/>
      <point x="547" y="0" type="line"/>
      <point x="547" y="31" type="line"/>
      <point x="479" y="31"/>
      <point x="470" y="38"/>
      <point x="470" y="87" type="curve" smooth="yes"/>
      <point x="470" y="442" type="line"/>
      <point x="319" y="431" type="line"/>
      <point x="319" y="400" type="line"/>
      <point x="387" y="400"/>
      <point x="396" y="393"/>
      <point x="396" y="344" type="curve" smooth="yes"/>
      <point x="396" y="167" type="line" smooth="yes"/>
      <point x="396" y="78"/>
      <point x="346" y="14"/>
      <point x="274" y="14" type="curve" smooth="yes"/>
      <point x="191" y="14"/>
      <point x="186" y="57"/>
      <point x="186" y="111" type="curve" smooth="yes"/>
      <point x="186" y="442" type="line"/>
      <point x="35" y="431" type="line"/>
      <point x="35" y="400" type="line"/>
      <point x="112" y="400"/>
      <point x="112" y="397"/>
      <point x="112" y="308" type="curve" smooth="yes"/>
      <point x="112" y="158" type="line" smooth="yes"/>
      <point x="112" y="93"/>
      <point x="112" y="51"/>
    </contour>
  </outline>
</glyph>
<glyph name="v" format="2">
  <advance width="542"/>
  <unicode hex="0076"/>
  <outline>
    <contour>
      <point x="180" y="355" type="line"/>
      <point x="177" y="361"/>
      <point x="175" y="367"/>
      <point x="175" y="374" type="curve" smooth="yes"/>
      <point x="175" y="400"/>
      <point x="211" y="400"/>
      <point x="230" y="400" type="curve"/>
      <point x="230" y="431" type="line"/>
      <point x="187" y="429"/>
      <point x="164" y="428"/>
      <point x="120" y="428" type="curve" smooth="yes"/>
      <point x="85" y="428"/>
      <point x="56" y="428"/>
      <point x="20" y="431" type="curve"/>
      <point x="20" y="400" type="line"/>
      <point x="67" y="400"/>
      <point x="86" y="400"/>
      <point x="101" y="363" type="curve" smooth="yes"/>
      <point x="247" y="8" type="line" smooth="yes"/>
      <point x="253" y="-8"/>
      <point x="261" y="-11"/>
      <point x="270" y="-11" type="curve" smooth="yes"/>
      <point x="279" y="-11"/>
      <point x="287" y="-9"/>
      <point x="294" y="8" type="curve" smooth="yes"/>
      <point x="430" y="336" type="line" smooth="yes"/>
      <point x="451" y="387"/>
      <point x="486" y="399"/>
      <point x="521" y="400" type="curve"/>
      <point x="521" y="431" type="line"/>
      <point x="491" y="428"/>
      <point x="446" y="428"/>
      <point x="444" y="428" type="curve" smooth="yes"/>
      <point x="416" y="428"/>
      <point x="385" y="429"/>
      <point x="357" y="431" type="curve"/>
      <point x="357" y="400" type="line"/>
      <point x="386" y="398"/>
      <point x="403" y="383"/>
      <point x="403" y="357" type="curve" smooth="yes"/>
      <point x="403" y="347"/>
      <point x="402" y="345"/>
      <point x="398" y="334" type="curve" smooth="yes"/>
      <point x="294" y="82" type="line"/>
    </contour>
  </outline>
</glyph>
<glyph name="w" format="2">
  <advance width="742"/>
  <unicode hex="0077"/>
  <outline>
    <contour>
      <point x="637" y="334" type="line" smooth="yes"/>
      <point x="659" y="395"/>
      <point x="700" y="399"/>
      <point x="721" y="400" type="curve"/>
      <point x="721" y="431" type="line"/>
      <point x="681" y="428"/>
      <point x="679" y="428"/>
      <point x="646" y="428" type="curve" smooth="yes"/>
      <point x="608" y="428"/>
      <point x="594" y="428"/>
      <point x="554" y="431" type="curve"/>
      <point x="554" y="400" type="line"/>
      <point x="597" y="399"/>
      <point x="611" y="372"/>
      <point x="611" y="352" type="curve" smooth="yes"/>
      <point x="611" y="342"/>
      <point x="609" y="336"/>
      <point x="606" y="329" type="curve"/>
      <point x="514" y="79" type="line"/>
      <point x="413" y="353" type="line" smooth="yes"/>
      <point x="408" y="366"/>
      <point x="408" y="369"/>
      <point x="408" y="372" type="curve" smooth="yes"/>
      <point x="408" y="398"/>
      <point x="439" y="400"/>
      <point x="465" y="400" type="curve"/>
      <point x="465" y="431" type="line"/>
      <point x="419" y="428"/>
      <point x="378" y="428"/>
      <point x="362" y="428" type="curve" smooth="yes"/>
      <point x="331" y="428"/>
      <point x="302" y="428"/>
      <point x="270" y="431" type="curve"/>
      <point x="270" y="400" type="line"/>
      <point x="302" y="400"/>
      <point x="322" y="399"/>
      <point x="333" y="385" type="curve" smooth="yes"/>
      <point x="342" y="374"/>
      <point x="355" y="334"/>
      <point x="355" y="331" type="curve" smooth="yes"/>
      <point x="355" y="329"/>
      <point x="350" y="318"/>
      <point x="350" y="317" type="curve"/>
      <point x="268" y="92" type="line"/>
      <point x="173" y="352" type="line" smooth="yes"/>
      <point x="167" y="367"/>
      <point x="167" y="369"/>
      <point x="167" y="373" type="curve" smooth="yes"/>
      <point x="167" y="400"/>
      <point x="206" y="400"/>
      <point x="225" y="400" type="curve"/>
      <point x="225" y="431" type="line"/>
      <point x="179" y="429"/>
      <point x="156" y="428"/>
      <point x="116" y="428" type="curve" smooth="yes"/>
      <point x="83" y="428"/>
      <point x="54" y="428"/>
      <point x="20" y="431" type="curve"/>
      <point x="20" y="400" type="line"/>
      <point x="68" y="400"/>
      <point x="81" y="398"/>
      <point x="93" y="364" type="curve" smooth="yes"/>
      <point x="222" y="11" type="line" smooth="yes"/>
      <point x="227" y="-1"/>
      <point x="230" y="-11"/>
      <point x="245" y="-11" type="curve" smooth="yes"/>
      <point x="260" y="-11"/>
      <point x="264" y="0"/>
      <point x="268" y="10" type="curve" smooth="yes"/>
      <point x="370" y="290" type="line"/>
      <point x="473" y="10" type="line" smooth="yes"/>
      <point x="477" y="0"/>
      <point x="481" y="-11"/>
      <point x="496" y="-11" type="curve" smooth="yes"/>
      <point x="511" y="-11"/>
      <point x="514" y="-1"/>
      <point x="518" y="9" type="curve" smooth="yes"/>
    </contour>
  </outline>
</glyph>
<glyph name="x" format="2">
  <advance width="542"/>
  <unicode hex="0078"/>
  <outline>
    <contour>
      <point x="14" y="0" type="line"/>
      <point x="43" y="3"/>
      <point x="70" y="3"/>
      <point x="99" y="3" type="curve" smooth="yes"/>
      <point x="131" y="3"/>
      <point x="163" y="2"/>
      <point x="195" y="0" type="curve"/>
      <point x="195" y="31" type="line"/>
      <point x="170" y="34"/>
      <point x="167" y="51"/>
      <point x="167" y="61" type="curve" smooth="yes"/>
      <point x="167" y="64"/>
      <point x="167" y="78"/>
      <point x="182" y="96" type="curve" smooth="yes"/>
      <point x="257" y="187" type="line"/>
      <point x="336" y="86" type="line" smooth="yes"/>
      <point x="355" y="64"/>
      <point x="355" y="62"/>
      <point x="355" y="56" type="curve" smooth="yes"/>
      <point x="355" y="45"/>
      <point x="345" y="32"/>
      <point x="321" y="31" type="curve"/>
      <point x="321" y="0" type="line"/>
      <point x="363" y="2"/>
      <point x="387" y="3"/>
      <point x="430" y="3" type="curve" smooth="yes"/>
      <point x="432" y="3"/>
      <point x="489" y="3"/>
      <point x="528" y="0" type="curve"/>
      <point x="528" y="31" type="line"/>
      <point x="488" y="31"/>
      <point x="458" y="31"/>
      <point x="436" y="59" type="curve" smooth="yes"/>
      <point x="297" y="235" type="line"/>
      <point x="380" y="335" type="line" smooth="yes"/>
      <point x="412" y="375"/>
      <point x="449" y="399"/>
      <point x="510" y="400" type="curve"/>
      <point x="510" y="431" type="line"/>
      <point x="481" y="428"/>
      <point x="454" y="428"/>
      <point x="425" y="428" type="curve" smooth="yes"/>
      <point x="387" y="428"/>
      <point x="369" y="428"/>
      <point x="329" y="431" type="curve"/>
      <point x="329" y="400" type="line"/>
      <point x="344" y="398"/>
      <point x="357" y="390"/>
      <point x="357" y="370" type="curve" smooth="yes"/>
      <point x="357" y="354"/>
      <point x="348" y="343"/>
      <point x="343" y="337" type="curve" smooth="yes"/>
      <point x="279" y="258" type="line"/>
      <point x="201" y="357" type="line" smooth="yes"/>
      <point x="194" y="366"/>
      <point x="192" y="368"/>
      <point x="192" y="375" type="curve" smooth="yes"/>
      <point x="192" y="387"/>
      <point x="203" y="399"/>
      <point x="226" y="400" type="curve"/>
      <point x="226" y="431" type="line"/>
      <point x="188" y="429"/>
      <point x="162" y="428"/>
      <point x="117" y="428" type="curve" smooth="yes"/>
      <point x="115" y="428"/>
      <point x="58" y="428"/>
      <point x="19" y="431" type="curve"/>
      <point x="19" y="400" type="line"/>
      <point x="88" y="400"/>
      <point x="90" y="398"/>
      <point x="136" y="339" type="curve" smooth="yes"/>
      <point x="239" y="210" type="line"/>
      <point x="142" y="93" type="line" smooth="yes"/>
      <point x="92" y="33"/>
      <point x="35" y="31"/>
      <point x="14" y="31" type="curve"/>
    </contour>
  </outline>
</glyph>
<glyph name="y" format="2">
  <advance width="542"/>
  <unicode hex="0079"/>
  <outline>
    <contour>
      <point x="182" y="353" type="line" smooth="yes"/>
      <point x="176" y="367"/>
      <point x="176" y="372"/>
      <point x="176" y="374" type="curve" smooth="yes"/>
      <point x="176" y="400"/>
      <point x="210" y="400"/>
      <point x="231" y="400" type="curve"/>
      <point x="231" y="431" type="line"/>
      <point x="182" y="429"/>
      <point x="162" y="428"/>
      <point x="120" y="428" type="curve" smooth="yes"/>
      <point x="117" y="428"/>
      <point x="60" y="428"/>
      <point x="21" y="431" type="curve"/>
      <point x="21" y="400" type="line"/>
      <point x="66" y="400"/>
      <point x="85" y="398"/>
      <point x="97" y="371" type="curve" smooth="yes"/>
      <point x="255" y="0" type="line"/>
      <point x="230" y="-59" type="line" smooth="yes"/>
      <point x="208" y="-112"/>
      <point x="179" y="-180"/>
      <point x="114" y="-180" type="curve" smooth="yes"/>
      <point x="89" y="-180"/>
      <point x="72" y="-167"/>
      <point x="69" y="-165" type="curve"/>
      <point x="77" y="-164"/>
      <point x="105" y="-156"/>
      <point x="105" y="-122" type="curve" smooth="yes"/>
      <point x="105" y="-96"/>
      <point x="86" y="-80"/>
      <point x="63" y="-80" type="curve" smooth="yes"/>
      <point x="38" y="-80"/>
      <point x="20" y="-96"/>
      <point x="20" y="-123" type="curve" smooth="yes"/>
      <point x="20" y="-168"/>
      <point x="62" y="-205"/>
      <point x="114" y="-205" type="curve" smooth="yes"/>
      <point x="179" y="-205"/>
      <point x="222" y="-147"/>
      <point x="246" y="-92" type="curve" smooth="yes"/>
      <point x="427" y="331" type="line" smooth="yes"/>
      <point x="438" y="357"/>
      <point x="456" y="398"/>
      <point x="520" y="400" type="curve"/>
      <point x="520" y="431" type="line"/>
      <point x="488" y="428"/>
      <point x="457" y="428"/>
      <point x="444" y="428" type="curve" smooth="yes"/>
      <point x="416" y="428"/>
      <point x="385" y="429"/>
      <point x="357" y="431" type="curve"/>
      <point x="357" y="400" type="line"/>
      <point x="403" y="398"/>
      <point x="403" y="362"/>
      <point x="403" y="358" type="curve" smooth="yes"/>
      <point x="403" y="347"/>
      <point x="399" y="337"/>
      <point x="395" y="329" type="curve"/>
      <point x="294" y="91" type="line"/>
    </contour>
  </outline>
</glyph>
<glyph name="exclamdown" format="2">
  <advance width="285"/>
  <unicode hex="00A1"/>
  <outline>
    <contour>
      <point x="196" y="446" type="curve" smooth="yes"/>
      <point x="196" y="476"/>
      <point x="172" y="500"/>
      <point x="142" y="500" type="curve" smooth="yes"/>
      <point x="112" y="500"/>
      <point x="88" y="476"/>
      <point x="88" y="446" type="curve" smooth="yes"/>
      <point x="88" y="416"/>
      <point x="112" y="392"/>
      <point x="142" y="392" type="curve" smooth="yes"/>
      <point x="172" y="392"/>
      <point x="196" y="416"/>
    </contour>
    <contour>
      <point x="88" y="-164" type="line"/>
      <point x="88" y="-199"/>
      <point x="118" y="-216"/>
      <point x="142" y="-216" type="curve" smooth="yes"/>
      <point x="166" y="-216"/>
      <point x="196" y="-199"/>
      <point x="196" y="-164" type="curve"/>
      <point x="195" y="-153" type="line"/>
      <point x="157" y="290" type="line" smooth="yes"/>
      <point x="156" y="304"/>
      <point x="155" y="311"/>
      <point x="142" y="311" type="curve" smooth="yes"/>
      <point x="129" y="311"/>
      <point x="128" y="304"/>
      <point x="127" y="290" type="curve" smooth="yes"/>
    </contour>
  </outline>
</glyph>
<glyph name="macron" format="2">
  <advance width="513"/>
  <unicode hex="00AF"/>
  <outline>
    <contour>
      <point x="442" y="558" type="line"/>
      <point x="442" y="593" type="line"/>
      <point x="71" y="593" type="line"/>
      <point x="71" y="558" type="line"/>
    </contour>
  </outline>
</glyph>
<glyph name="questiondown" format="2">
  <advance width="485"/>
  <unicode hex="00BF"/>
  <outline>
    <contour>
      <point x="228" y="-205" type="curve" smooth="yes"/>
      <point x="342" y="-205"/>
      <point x="427" y="-150"/>
      <point x="427" y="-72" type="curve" smooth="yes"/>
      <point x="427" y="-37"/>
      <point x="403" y="-23"/>
      <point x="380" y="-23" type="curve" smooth="yes"/>
      <point x="354" y="-23"/>
      <point x="334" y="-42"/>
      <point x="334" y="-69" type="curve" smooth="yes"/>
      <point x="334" y="-106"/>
      <point x="365" y="-117"/>
      <point x="385" y="-117" type="curve"/>
      <point x="355" y="-162"/>
      <point x="284" y="-180"/>
      <point x="230" y="-180" type="curve" smooth="yes"/>
      <point x="144" y="-180"/>
      <point x="143" y="-124"/>
      <point x="143" y="-76" type="curve" smooth="yes"/>
      <point x="143" y="-56"/>
      <point x="143" y="-18"/>
      <point x="164" y="12" type="curve" smooth="yes"/>
      <point x="210" y="75"/>
      <point x="242" y="137"/>
      <point x="242" y="265" type="curve" smooth="yes"/>
      <point x="242" y="275"/>
      <point x="242" y="285"/>
      <point x="242" y="295" type="curve" smooth="yes"/>
      <point x="242" y="302"/>
      <point x="242" y="311"/>
      <point x="228" y="311" type="curve" smooth="yes"/>
      <point x="214" y="311"/>
      <point x="214" y="304"/>
      <point x="214" y="286" type="curve" smooth="yes"/>
      <point x="214" y="255" type="line" smooth="yes"/>
      <point x="214" y="157"/>
      <point x="168" y="85"/>
      <point x="107" y="34" type="curve" smooth="yes"/>
      <point x="92" y="22"/>
      <point x="57" y="-7"/>
      <point x="57" y="-69" type="curve" smooth="yes"/>
      <point x="57" y="-133"/>
      <point x="96" y="-205"/>
    </contour>
    <contour>
      <point x="282" y="446" type="curve" smooth="yes"/>
      <point x="282" y="476"/>
      <point x="258" y="500"/>
      <point x="228" y="500" type="curve" smooth="yes"/>
      <point x="198" y="500"/>
      <point x="174" y="476"/>
      <point x="174" y="446" type="curve" smooth="yes"/>
      <point x="174" y="416"/>
      <point x="198" y="392"/>
      <point x="228" y="392" type="curve" smooth="yes"/>
      <point x="258" y="392"/>
      <point x="282" y="416"/>
    </contour>
  </outline>
</glyph>
<glyph name="Oslash" format="2">
  <advance width="799"/>
  <unicode hex="00D8"/>
  <outline>
    <contour>
      <point x="660" y="740" type="line"/>
      <point x="592" y="642" type="line"/>
      <point x="551" y="669"/>
      <point x="488" y="705"/>
      <point x="399" y="705" type="curve" smooth="yes"/>
      <point x="212" y="705"/>
      <point x="57" y="542"/>
      <point x="57" y="339" type="curve" smooth="yes"/>
      <point x="57" y="217"/>
      <point x="113" y="118"/>
      <point x="184" y="58" type="curve"/>
      <point x="116" y="-41" type="line"/>
      <point x="138" y="-57" type="line"/>
      <point x="206" y="41" type="line"/>
      <point x="282" y="-13"/>
      <point x="355" y="-22"/>
      <point x="399" y="-22" type="curve" smooth="yes"/>
      <point x="585" y="-22"/>
      <point x="741" y="136"/>
      <point x="741" y="339" type="curve" smooth="yes"/>
      <point x="741" y="452"/>
      <point x="692" y="557"/>
      <point x="613" y="624" type="curve"/>
      <point x="682" y="724" type="line"/>
    </contour>
    <contour>
      <point x="211" y="97" type="line"/>
      <point x="169" y="153"/>
      <point x="147" y="225"/>
      <point x="147" y="339" type="curve" smooth="yes"/>
      <point x="147" y="667"/>
      <point x="359" y="680"/>
      <point x="399" y="680" type="curve" smooth="yes"/>
      <point x="479" y="680"/>
      <point x="537" y="639"/>
      <point x="567" y="608" type="curve"/>
    </contour>
    <contour>
      <point x="586" y="585" type="line"/>
      <point x="629" y="527"/>
      <point x="651" y="452"/>
      <point x="651" y="339" type="curve" smooth="yes"/>
      <point x="651" y="277"/>
      <point x="646" y="178"/>
      <point x="591" y="102" type="curve" smooth="yes"/>
      <point x="540" y="33"/>
      <point x="466" y="3"/>
      <point x="399" y="3" type="curve" smooth="yes"/>
      <point x="319" y="3"/>
      <point x="258" y="44"/>
      <point x="231" y="75" type="curve"/>
    </contour>
  </outline>
</glyph>
<glyph name="OE" format="2">
  <advance width="1042"/>
  <unicode hex="0152"/>
  <outline>
    <contour>
      <point x="411" y="-22" type="curve" smooth="yes"/>
      <point x="424" y="-22"/>
      <point x="443" y="-21"/>
      <point x="479" y="-13" type="curve" smooth="yes"/>
      <point x="535" y="-1"/>
      <point x="549" y="0"/>
      <point x="571" y="0" type="curve" smooth="yes"/>
      <point x="969" y="0" type="line"/>
      <point x="1012" y="258" type="line"/>
      <point x="984" y="258" type="line"/>
      <point x="959" y="102"/>
      <point x="937" y="31"/>
      <point x="770" y="31" type="curve" smooth="yes"/>
      <point x="655" y="31" type="line" smooth="yes"/>
      <point x="608" y="31"/>
      <point x="606" y="38"/>
      <point x="606" y="72" type="curve" smooth="yes"/>
      <point x="606" y="339" type="line"/>
      <point x="717" y="339" type="line" smooth="yes"/>
      <point x="818" y="339"/>
      <point x="833" y="309"/>
      <point x="833" y="222" type="curve"/>
      <point x="861" y="222" type="line"/>
      <point x="861" y="487" type="line"/>
      <point x="833" y="487" type="line"/>
      <point x="833" y="401"/>
      <point x="819" y="370"/>
      <point x="717" y="370" type="curve" smooth="yes"/>
      <point x="606" y="370" type="line"/>
      <point x="606" y="611" type="line" smooth="yes"/>
      <point x="606" y="645"/>
      <point x="608" y="652"/>
      <point x="655" y="652" type="curve" smooth="yes"/>
      <point x="771" y="652" type="line" smooth="yes"/>
      <point x="917" y="652"/>
      <point x="940" y="595"/>
      <point x="956" y="458" type="curve"/>
      <point x="984" y="458" type="line"/>
      <point x="956" y="683" type="line"/>
      <point x="571" y="683" type="line" smooth="yes"/>
      <point x="549" y="683"/>
      <point x="536" y="684"/>
      <point x="479" y="696" type="curve" smooth="yes"/>
      <point x="443" y="704"/>
      <point x="424" y="705"/>
      <point x="411" y="705" type="curve" smooth="yes"/>
      <point x="231" y="705"/>
      <point x="71" y="547"/>
      <point x="71" y="339" type="curve" smooth="yes"/>
      <point x="71" y="131"/>
      <point x="233" y="-22"/>
    </contour>
    <contour>
      <point x="415" y="3" type="curve" smooth="yes"/>
      <point x="280" y="3"/>
      <point x="170" y="159"/>
      <point x="170" y="354" type="curve" smooth="yes"/>
      <point x="170" y="542"/>
      <point x="283" y="680"/>
      <point x="415" y="680" type="curve" smooth="yes"/>
      <point x="503" y="680"/>
      <point x="516" y="636"/>
      <point x="523" y="575" type="curve" smooth="yes"/>
      <point x="528" y="532"/>
      <point x="528" y="449"/>
      <point x="528" y="342" type="curve" smooth="yes"/>
      <point x="528" y="238"/>
      <point x="528" y="153"/>
      <point x="524" y="117" type="curve" smooth="yes"/>
      <point x="517" y="54"/>
      <point x="510" y="3"/>
    </contour>
  </outline>
</glyph>
<glyph name="oe" format="2">
  <advance width="799"/>
  <unicode hex="0153"/>
  <outline>
    <contour>
      <point x="248" y="-11" type="curve" smooth="yes"/>
      <point x="320" y="-11"/>
      <point x="388" y="26"/>
      <point x="428" y="91" type="curve"/>
      <point x="457" y="45"/>
      <point x="522" y="-11"/>
      <point x="610" y="-11" type="curve" smooth="yes"/>
      <point x="725" y="-11"/>
      <point x="769" y="99"/>
      <point x="769" y="119" type="curve" smooth="yes"/>
      <point x="769" y="126"/>
      <point x="764" y="132"/>
      <point x="755" y="132" type="curve" smooth="yes"/>
      <point x="744" y="132"/>
      <point x="742" y="125"/>
      <point x="741" y="121" type="curve"/>
      <point x="709" y="20"/>
      <point x="631" y="17"/>
      <point x="615" y="17" type="curve" smooth="yes"/>
      <point x="603" y="17"/>
      <point x="465" y="18"/>
      <point x="465" y="229" type="curve"/>
      <point x="742" y="229" type="line" smooth="yes"/>
      <point x="765" y="229"/>
      <point x="769" y="229"/>
      <point x="769" y="251" type="curve" smooth="yes"/>
      <point x="769" y="359"/>
      <point x="711" y="448"/>
      <point x="598" y="448" type="curve" smooth="yes"/>
      <point x="509" y="448"/>
      <point x="452" y="389"/>
      <point x="427" y="349" type="curve"/>
      <point x="402" y="388"/>
      <point x="341" y="448"/>
      <point x="248" y="448" type="curve" smooth="yes"/>
      <point x="130" y="448"/>
      <point x="29" y="349"/>
      <point x="29" y="219" type="curve" smooth="yes"/>
      <point x="29" y="91"/>
      <point x="129" y="-11"/>
    </contour>
    <contour>
      <point x="249" y="14" type="curve" smooth="yes"/>
      <point x="218" y="14"/>
      <point x="109" y="30"/>
      <point x="109" y="223" type="curve" smooth="yes"/>
      <point x="109" y="414"/>
      <point x="224" y="423"/>
      <point x="249" y="423" type="curve" smooth="yes"/>
      <point x="277" y="423"/>
      <point x="391" y="408"/>
      <point x="391" y="223" type="curve" smooth="yes"/>
      <point x="391" y="32"/>
      <point x="278" y="14"/>
    </contour>
    <contour>
      <point x="466" y="253" type="line"/>
      <point x="475" y="385"/>
      <point x="551" y="423"/>
      <point x="597" y="423" type="curve" smooth="yes"/>
      <point x="695" y="423"/>
      <point x="700" y="289"/>
      <point x="702" y="253" type="curve"/>
    </contour>
  </outline>
</glyph>
<glyph name="circumflex" format="2">
  <advance width="513"/>
  <unicode hex="02C6"/>
  <outline>
    <contour>
      <point x="257" y="694" type="line"/>
      <point x="119" y="559" type="line"/>
      <point x="137" y="538" type="line"/>
      <point x="257" y="639" type="line"/>
      <point x="376" y="538" type="line"/>
      <point x="394" y="559" type="line"/>
    </contour>
  </outline>
</glyph>
<glyph name="caron" format="2">
  <advance width="513"/>
  <unicode hex="02C7"/>
  <outline>
    <contour>
      <point x="257" y="571" type="line"/>
      <point x="136" y="640" type="line"/>
      <point x="120" y="616" type="line"/>
      <point x="256" y="516" type="line"/>
      <point x="393" y="616" type="line"/>
      <point x="377" y="640" type="line"/>
    </contour>
  </outline>
</glyph>
<glyph name="tilde" format="2">
  <advance width="513"/>
  <unicode hex="02DC"/>
  <outline>
    <contour>
      <point x="409" y="669" type="line"/>
      <point x="382" y="642"/>
      <point x="359" y="623"/>
      <point x="328" y="623" type="curve" smooth="yes"/>
      <point x="306" y="623"/>
      <point x="287" y="632"/>
      <point x="256" y="649" type="curve" smooth="yes"/>
      <point x="243" y="656"/>
      <point x="220" y="669"/>
      <point x="196" y="669" type="curve" smooth="yes"/>
      <point x="159" y="669"/>
      <point x="140" y="649"/>
      <point x="86" y="590" type="curve"/>
      <point x="104" y="573" type="line"/>
      <point x="131" y="600"/>
      <point x="154" y="619"/>
      <point x="185" y="619" type="curve" smooth="yes"/>
      <point x="207" y="619"/>
      <point x="226" y="610"/>
      <point x="257" y="593" type="curve" smooth="yes"/>
      <point x="270" y="586"/>
      <point x="293" y="573"/>
      <point x="317" y="573" type="curve" smooth="yes"/>
      <point x="354" y="573"/>
      <point x="373" y="593"/>
      <point x="427" y="652" type="curve"/>
    </contour>
  </outline>
</glyph>
<glyph name="hungarumlaut" format="2">
  <advance width="513"/>
  <unicode hex="02DD"/>
  <outline>
    <contour>
      <point x="131" y="525" type="line"/>
      <point x="155" y="512" type="line"/>
      <point x="248" y="634" type="line" smooth="yes"/>
      <point x="259" y="648"/>
      <point x="260" y="657"/>
      <point x="260" y="662" type="curve" smooth="yes"/>
      <point x="260" y="686"/>
      <point x="236" y="700"/>
      <point x="220" y="700" type="curve" smooth="yes"/>
      <point x="204" y="700"/>
      <point x="194" y="690"/>
      <point x="189" y="681" type="curve"/>
    </contour>
    <contour>
      <point x="302" y="525" type="line"/>
      <point x="326" y="512" type="line"/>
      <point x="419" y="634" type="line" smooth="yes"/>
      <point x="430" y="648"/>
      <point x="431" y="657"/>
      <point x="431" y="662" type="curve" smooth="yes"/>
      <point x="431" y="686"/>
      <point x="407" y="700"/>
      <point x="391" y="700" type="curve" smooth="yes"/>
      <point x="375" y="700"/>
      <point x="365" y="690"/>
      <point x="360" y="681" type="curve"/>
    </contour>
  </outline>
</glyph>
<glyph name="Gamma" format="2">
  <advance width="642"/>
  <unicode hex="0393"/>
  <outline>
    <contour>
      <point x="570" y="680" type="line"/>
      <point x="38" y="680" type="line"/>
      <point x="38" y="649" type="line"/>
      <point x="61" y="649" type="line" smooth="yes"/>
      <point x="138" y="649"/>
      <point x="140" y="638"/>
      <point x="140" y="601" type="curve" smooth="yes"/>
      <point x="140" y="79" type="line" smooth="yes"/>
      <point x="140" y="42"/>
      <point x="138" y="31"/>
      <point x="61" y="31" type="curve" smooth="yes"/>
      <point x="38" y="31" type="line"/>
      <point x="38" y="0" type="line"/>
      <point x="83" y="3"/>
      <point x="145" y="3"/>
      <point x="191" y="3" type="curve" smooth="yes"/>
      <point x="231" y="3"/>
      <point x="322" y="3"/>
      <point x="357" y="0" type="curve"/>
      <point x="357" y="31" type="line"/>
      <point x="325" y="31" type="line" smooth="yes"/>
      <point x="234" y="31"/>
      <point x="230" y="43"/>
      <point x="230" y="80" type="curve" smooth="yes"/>
      <point x="230" y="608" type="line" smooth="yes"/>
      <point x="230" y="642"/>
      <point x="232" y="649"/>
      <point x="279" y="649" type="curve" smooth="yes"/>
      <point x="387" y="649" type="line" smooth="yes"/>
      <point x="533" y="649"/>
      <point x="554" y="590"/>
      <point x="570" y="455" type="curve"/>
      <point x="598" y="455" type="line"/>
    </contour>
  </outline>
</glyph>
<glyph name="Theta" format="2">
  <advance width="799"/>
  <unicode hex="0398"/>
  <outline>
    <contour>
      <point x="741" y="339" type="curve" smooth="yes"/>
      <point x="741" y="543"/>
      <point x="586" y="705"/>
      <point x="399" y="705" type="curve" smooth="yes"/>
      <point x="212" y="705"/>
      <point x="57" y="542"/>
      <point x="57" y="339" type="curve" smooth="yes"/>
      <point x="57" y="136"/>
      <point x="213" y="-22"/>
      <point x="399" y="-22" type="curve" smooth="yes"/>
      <point x="585" y="-22"/>
      <point x="741" y="136"/>
    </contour>
    <contour>
      <point x="399" y="5" type="curve" smooth="yes"/>
      <point x="296" y="5"/>
      <point x="153" y="92"/>
      <point x="153" y="339" type="curve" smooth="yes"/>
      <point x="153" y="586"/>
      <point x="292" y="680"/>
      <point x="399" y="680" type="curve" smooth="yes"/>
      <point x="507" y="680"/>
      <point x="645" y="585"/>
      <point x="645" y="339" type="curve" smooth="yes"/>
      <point x="645" y="92"/>
      <point x="503" y="5"/>
    </contour>
    <contour>
      <point x="239" y="381" type="line"/>
      <point x="239" y="415" type="line"/>
      <point x="211" y="415" type="line"/>
      <point x="211" y="270" type="line"/>
      <point x="239" y="270" type="line"/>
      <point x="239" y="304" type="line"/>
      <point x="559" y="304" type="line"/>
      <point x="559" y="270" type="line"/>
      <point x="587" y="270" type="line"/>
      <point x="587" y="415" type="line"/>
      <point x="559" y="415" type="line"/>
      <point x="559" y="381" type="line"/>
    </contour>
  </outline>
</glyph>
<glyph name="Lambda" format="2">
  <advance width="713"/>
  <unicode hex="039B"/>
  <outline>
    <contour>
      <point x="325" y="575" type="line"/>
      <point x="491" y="81" type="line" smooth="yes"/>
      <point x="496" y="68"/>
      <point x="496" y="66"/>
      <point x="496" y="62" type="curve" smooth="yes"/>
      <point x="496" y="31"/>
      <point x="441" y="31"/>
      <point x="413" y="31" type="curve"/>
      <point x="413" y="0" type="line"/>
      <point x="458" y="3"/>
      <point x="509" y="3"/>
      <point x="555" y="3" type="curve" smooth="yes"/>
      <point x="602" y="3"/>
      <point x="603" y="3"/>
      <point x="680" y="0" type="curve"/>
      <point x="680" y="31" type="line"/>
      <point x="619" y="31"/>
      <point x="602" y="31"/>
      <point x="588" y="73" type="curve" smooth="yes"/>
      <point x="380" y="695" type="line" smooth="yes"/>
      <point x="375" y="708"/>
      <point x="372" y="716"/>
      <point x="356" y="716" type="curve" smooth="yes"/>
      <point x="340" y="716"/>
      <point x="337" y="707"/>
      <point x="333" y="695" type="curve" smooth="yes"/>
      <point x="134" y="101" type="line" smooth="yes"/>
      <point x="124" y="70"/>
      <point x="103" y="31"/>
      <point x="33" y="31" type="curve"/>
      <point x="33" y="0" type="line"/>
      <point x="65" y="3"/>
      <point x="95" y="3"/>
      <point x="127" y="3" type="curve" smooth="yes"/>
      <point x="169" y="3"/>
      <point x="186" y="2"/>
      <point x="238" y="0" type="curve"/>
      <point x="238" y="31" type="line"/>
      <point x="189" y="32"/>
      <point x="163" y="55"/>
      <point x="163" y="83" type="curve" smooth="yes"/>
      <point x="163" y="88"/>
      <point x="163" y="90"/>
      <point x="168" y="104" type="curve" smooth="yes"/>
    </contour>
  </outline>
</glyph>
<glyph name="Xi" format="2">
  <advance width="685"/>
  <unicode hex="039E"/>
  <outline>
    <contour>
      <point x="626" y="677" type="line"/>
      <point x="58" y="677" type="line"/>
      <point x="49" y="520" type="line"/>
      <point x="77" y="520" type="line"/>
      <point x="79" y="546"/>
      <point x="81" y="584"/>
      <point x="90" y="597" type="curve"/>
      <point x="95" y="606"/>
      <point x="155" y="606"/>
      <point x="166" y="606" type="curve" smooth="yes"/>
      <point x="518" y="606" type="line" smooth="yes"/>
      <point x="520" y="606"/>
      <point x="587" y="606"/>
      <point x="593" y="598" type="curve"/>
      <point x="603" y="587"/>
      <point x="606" y="546"/>
      <point x="607" y="520" type="curve"/>
      <point x="635" y="520" type="line"/>
    </contour>
    <contour>
      <point x="52" y="0" type="line"/>
      <point x="632" y="0" type="line"/>
      <point x="641" y="168" type="line"/>
      <point x="613" y="168" type="line"/>
      <point x="612" y="143"/>
      <point x="610" y="99"/>
      <point x="601" y="82" type="curve" smooth="yes"/>
      <point x="595" y="71"/>
      <point x="542" y="71"/>
      <point x="519" y="71" type="curve" smooth="yes"/>
      <point x="165" y="71" type="line" smooth="yes"/>
      <point x="156" y="71"/>
      <point x="90" y="71"/>
      <point x="84" y="80" type="curve"/>
      <point x="75" y="96"/>
      <point x="72" y="139"/>
      <point x="71" y="168" type="curve"/>
      <point x="43" y="168" type="line"/>
    </contour>
    <contour>
      <point x="171" y="388" type="line"/>
      <point x="171" y="439" type="line"/>
      <point x="143" y="439" type="line"/>
      <point x="143" y="266" type="line"/>
      <point x="171" y="266" type="line"/>
      <point x="171" y="317" type="line"/>
      <point x="513" y="317" type="line"/>
      <point x="513" y="266" type="line"/>
      <point x="541" y="266" type="line"/>
      <point x="541" y="439" type="line"/>
      <point x="513" y="439" type="line"/>
      <point x="513" y="388" type="line"/>
    </contour>
  </outline>
</glyph>
<glyph name="Pi" format="2">
  <advance width="770"/>
  <unicode hex="03A0"/>
  <outline>
    <contour>
      <point x="230" y="649" type="line"/>
      <point x="540" y="649" type="line"/>
      <point x="540" y="79" type="line" smooth="yes"/>
      <point x="540" y="42"/>
      <point x="538" y="31"/>
      <point x="461" y="31" type="curve" smooth="yes"/>
      <point x="438" y="31" type="line"/>
      <point x="438" y="0" type="line"/>
      <point x="483" y="3"/>
      <point x="539" y="3"/>
      <point x="585" y="3" type="curve" smooth="yes"/>
      <point x="631" y="3"/>
      <point x="687" y="3"/>
      <point x="732" y="0" type="curve"/>
      <point x="732" y="31" type="line"/>
      <point x="709" y="31" type="line" smooth="yes"/>
      <point x="632" y="31"/>
      <point x="630" y="42"/>
      <point x="630" y="79" type="curve" smooth="yes"/>
      <point x="630" y="601" type="line" smooth="yes"/>
      <point x="630" y="638"/>
      <point x="632" y="649"/>
      <point x="709" y="649" type="curve" smooth="yes"/>
      <point x="732" y="649" type="line"/>
      <point x="732" y="680" type="line"/>
      <point x="38" y="680" type="line"/>
      <point x="38" y="649" type="line"/>
      <point x="61" y="649" type="line" smooth="yes"/>
      <point x="138" y="649"/>
      <point x="140" y="638"/>
      <point x="140" y="601" type="curve" smooth="yes"/>
      <point x="140" y="79" type="line" smooth="yes"/>
      <point x="140" y="42"/>
      <point x="138" y="31"/>
      <point x="61" y="31" type="curve" smooth="yes"/>
      <point x="38" y="31" type="line"/>
      <point x="38" y="0" type="line"/>
      <point x="83" y="3"/>
      <point x="139" y="3"/>
      <point x="185" y="3" type="curve" smooth="yes"/>
      <point x="231" y="3"/>
      <point x="287" y="3"/>
      <point x="332" y="0" type="curve"/>
      <point x="332" y="31" type="line"/>
      <point x="309" y="31" type="line" smooth="yes"/>
      <point x="232" y="31"/>
      <point x="230" y="42"/>
      <point x="230" y="79" type="curve" smooth="yes"/>
    </contour>
  </outline>
</glyph>
<glyph name="Sigma" format="2">
  <advance width="742"/>
  <unicode hex="03A3"/>
  <outline>
    <contour>
      <point x="379" y="326" type="line" smooth="yes"/>
      <point x="389" y="336"/>
      <point x="389" y="338"/>
      <point x="389" y="342" type="curve" smooth="yes"/>
      <point x="389" y="343"/>
      <point x="389" y="348"/>
      <point x="382" y="357" type="curve" smooth="yes"/>
      <point x="173" y="652" type="line"/>
      <point x="410" y="652" type="line" smooth="yes"/>
      <point x="500.6828" y="652.0"/>
      <point x="562.30536666" y="643.55225775"/>
      <point x="601.9390684806921" y="603.281971817157" type="curve" smooth="yes"/>
      <point x="630.4865155" y="574.27600464"/>
      <point x="647.626" y="528.7603"/>
      <point x="656" y="458" type="curve"/>
      <point x="684" y="458" type="line"/>
      <point x="656" y="683" type="line"/>
      <point x="84" y="683" type="line" smooth="yes"/>
      <point x="62" y="683"/>
      <point x="57" y="683"/>
      <point x="57" y="661" type="curve" smooth="yes"/>
      <point x="57" y="661"/>
      <point x="57" y="661"/>
      <point x="57" y="661" type="curve"/>
      <point x="313" y="298" type="line"/>
      <point x="68" y="29" type="line" smooth="yes"/>
      <point x="59" y="19"/>
      <point x="57" y="17"/>
      <point x="57" y="13" type="curve" smooth="yes"/>
      <point x="57" y="0"/>
      <point x="68" y="0"/>
      <point x="84" y="0" type="curve" smooth="yes"/>
      <point x="656" y="0" type="line"/>
      <point x="684" y="237" type="line"/>
      <point x="656" y="237" type="line"/>
      <point x="647.4056" y="166.52591999999999"/>
      <point x="631.2401695856" y="120.79618330559998"/>
      <point x="602.2664909392729" y="91.55820426493902" type="curve" smooth="yes"/>
      <point x="563.8156172112" y="52.75657835199999"/>
      <point x="502.80704" y="42.999999999999986"/>
      <point x="407" y="43" type="curve" smooth="yes"/>
      <point x="122" y="43" type="line"/>
    </contour>
  </outline>
</glyph>
<glyph name="Upsilon" format="2">
  <advance width="799"/>
  <unicode hex="03A5"/>
  <outline>
    <contour>
      <point x="227" y="0" type="line"/>
      <point x="262" y="3"/>
      <point x="358" y="3"/>
      <point x="399" y="3" type="curve" smooth="yes"/>
      <point x="440" y="3"/>
      <point x="536" y="3"/>
      <point x="571" y="0" type="curve"/>
      <point x="571" y="31" type="line"/>
      <point x="560" y="31"/>
      <point x="550" y="31"/>
      <point x="539" y="31" type="curve" smooth="yes"/>
      <point x="448" y="31"/>
      <point x="444" y="43"/>
      <point x="444" y="80" type="curve" smooth="yes"/>
      <point x="444" y="350" type="line" smooth="yes"/>
      <point x="444" y="435"/>
      <point x="468" y="628"/>
      <point x="608" y="628" type="curve" smooth="yes"/>
      <point x="651" y="628"/>
      <point x="704" y="607"/>
      <point x="710" y="550" type="curve" smooth="yes"/>
      <point x="711" y="542"/>
      <point x="712" y="534"/>
      <point x="725" y="534" type="curve" smooth="yes"/>
      <point x="741" y="534"/>
      <point x="741" y="544"/>
      <point x="741" y="552" type="curve" smooth="yes"/>
      <point x="741" y="614"/>
      <point x="698" y="705"/>
      <point x="607" y="705" type="curve" smooth="yes"/>
      <point x="446" y="705"/>
      <point x="408" y="507"/>
      <point x="400" y="462" type="curve"/>
      <point x="398" y="462" type="line"/>
      <point x="390" y="507"/>
      <point x="352" y="705"/>
      <point x="191" y="705" type="curve" smooth="yes"/>
      <point x="100" y="705"/>
      <point x="57" y="613"/>
      <point x="57" y="552" type="curve" smooth="yes"/>
      <point x="57" y="544"/>
      <point x="57" y="534"/>
      <point x="73" y="534" type="curve" smooth="yes"/>
      <point x="86" y="534"/>
      <point x="87" y="541"/>
      <point x="88" y="552" type="curve" smooth="yes"/>
      <point x="94" y="604"/>
      <point x="143" y="628"/>
      <point x="190" y="628" type="curve" smooth="yes"/>
      <point x="334" y="628"/>
      <point x="354" y="425"/>
      <point x="354" y="350" type="curve" smooth="yes"/>
      <point x="354" y="80" type="line" smooth="yes"/>
      <point x="354" y="43"/>
      <point x="350" y="31"/>
      <point x="259" y="31" type="curve" smooth="yes"/>
      <point x="248" y="31"/>
      <point x="238" y="31"/>
      <point x="227" y="31" type="curve"/>
    </contour>
  </outline>
</glyph>
<glyph name="Phi" format="2">
  <advance width="742"/>
  <unicode hex="03A6"/>
  <outline>
    <contour>
      <point x="410" y="603" type="line" smooth="yes"/>
      <point x="410" y="640"/>
      <point x="414" y="652"/>
      <point x="505" y="652" type="curve" smooth="yes"/>
      <point x="537" y="652" type="line"/>
      <point x="537" y="683" type="line"/>
      <point x="502" y="680"/>
      <point x="408" y="680"/>
      <point x="368" y="680" type="curve" smooth="yes"/>
      <point x="328" y="680"/>
      <point x="234" y="680"/>
      <point x="199" y="683" type="curve"/>
      <point x="199" y="652" type="line"/>
      <point x="231" y="652" type="line" smooth="yes"/>
      <point x="322" y="652"/>
      <point x="326" y="640"/>
      <point x="326" y="603" type="curve" smooth="yes"/>
      <point x="326" y="548" type="line"/>
      <point x="157" y="531"/>
      <point x="57" y="436"/>
      <point x="57" y="342" type="curve" smooth="yes"/>
      <point x="57" y="244"/>
      <point x="162" y="151"/>
      <point x="326" y="135" type="curve"/>
      <point x="326" y="80" type="line" smooth="yes"/>
      <point x="326" y="43"/>
      <point x="322" y="31"/>
      <point x="231" y="31" type="curve" smooth="yes"/>
      <point x="199" y="31" type="line"/>
      <point x="199" y="0" type="line"/>
      <point x="234" y="3"/>
      <point x="328" y="3"/>
      <point x="368" y="3" type="curve" smooth="yes"/>
      <point x="408" y="3"/>
      <point x="502" y="3"/>
      <point x="537" y="0" type="curve"/>
      <point x="537" y="31" type="line"/>
      <point x="505" y="31" type="line" smooth="yes"/>
      <point x="414" y="31"/>
      <point x="410" y="43"/>
      <point x="410" y="80" type="curve" smooth="yes"/>
      <point x="410" y="135" type="line"/>
      <point x="573" y="147"/>
      <point x="684" y="242"/>
      <point x="684" y="341" type="curve" smooth="yes"/>
      <point x="684" y="444"/>
      <point x="570" y="536"/>
      <point x="410" y="548" type="curve"/>
    </contour>
    <contour>
      <point x="326" y="161" type="line"/>
      <point x="217" y="174"/>
      <point x="156" y="233"/>
      <point x="156" y="341" type="curve" smooth="yes"/>
      <point x="156" y="441"/>
      <point x="207" y="507"/>
      <point x="326" y="522" type="curve"/>
    </contour>
    <contour>
      <point x="410" y="523" type="line"/>
      <point x="505" y="513"/>
      <point x="585" y="466"/>
      <point x="585" y="342" type="curve" smooth="yes"/>
      <point x="585" y="228"/>
      <point x="518" y="172"/>
      <point x="410" y="160" type="curve"/>
    </contour>
  </outline>
</glyph>
<glyph name="quoteright" format="2">
  <advance width="285"/>
  <unicode hex="2019"/>
  <outline>
    <contour>
      <point x="115" y="393" type="curve" smooth="yes"/>
      <point x="125" y="393"/>
      <point x="210" y="468"/>
      <point x="210" y="588" type="curve" smooth="yes"/>
      <point x="210" y="652"/>
      <point x="184" y="694"/>
      <point x="142" y="694" type="curve" smooth="yes"/>
      <point x="107" y="694"/>
      <point x="88" y="667"/>
      <point x="88" y="640" type="curve" smooth="yes"/>
      <point x="88" y="613"/>
      <point x="107" y="586"/>
      <point x="142" y="586" type="curve" smooth="yes"/>
      <point x="168" y="586"/>
      <point x="181" y="602"/>
      <point x="183" y="602" type="curve" smooth="yes"/>
      <point x="188" y="602"/>
      <point x="193" y="493"/>
      <point x="107" y="415" type="curve" smooth="yes"/>
      <point x="105" y="413"/>
      <point x="102" y="410"/>
      <point x="102" y="405" type="curve" smooth="yes"/>
      <point x="102" y="400"/>
      <point x="108" y="393"/>
    </contour>
  </outline>
</glyph>
<glyph name="quotedblleft" format="2">
  <advance width="513"/>
  <unicode hex="201C"/>
  <outline>
    <contour>
      <point x="279" y="446" type="curve" smooth="yes"/>
      <point x="279" y="473"/>
      <point x="260" y="500"/>
      <point x="225" y="500" type="curve" smooth="yes"/>
      <point x="212" y="500"/>
      <point x="199" y="496"/>
      <point x="188" y="487" type="curve"/>
      <point x="186" y="485"/>
      <point x="185" y="484"/>
      <point x="184" y="484" type="curve" smooth="yes"/>
      <point x="182" y="484"/>
      <point x="182" y="490"/>
      <point x="182" y="499" type="curve" smooth="yes"/>
      <point x="182" y="565"/>
      <point x="212" y="626"/>
      <point x="260" y="671" type="curve" smooth="yes"/>
      <point x="262" y="673"/>
      <point x="265" y="676"/>
      <point x="265" y="681" type="curve" smooth="yes"/>
      <point x="265" y="686"/>
      <point x="259" y="693"/>
      <point x="252" y="693" type="curve" smooth="yes"/>
      <point x="242" y="693"/>
      <point x="157" y="618"/>
      <point x="157" y="498" type="curve" smooth="yes"/>
      <point x="157" y="434"/>
      <point x="183" y="392"/>
      <point x="225" y="392" type="curve" smooth="yes"/>
      <point x="260" y="392"/>
      <point x="279" y="419"/>
    </contour>
    <contour>
      <point x="479" y="446" type="curve" smooth="yes"/>
      <point x="479" y="473"/>
      <point x="460" y="500"/>
      <point x="425" y="500" type="curve" smooth="yes"/>
      <point x="412" y="500"/>
      <point x="399" y="496"/>
      <point x="388" y="487" type="curve"/>
      <point x="386" y="485"/>
      <point x="385" y="484"/>
      <point x="384" y="484" type="curve" smooth="yes"/>
      <point x="382" y="484"/>
      <point x="382" y="490"/>
      <point x="382" y="499" type="curve" smooth="yes"/>
      <point x="382" y="565"/>
      <point x="412" y="626"/>
      <point x="460" y="671" type="curve" smooth="yes"/>
      <point x="462" y="673"/>
      <point x="465" y="676"/>
      <point x="465" y="681" type="curve" smooth="yes"/>
      <point x="465" y="686"/>
      <point x="459" y="693"/>
      <point x="452" y="693" type="curve" smooth="yes"/>
      <point x="442" y="693"/>
      <point x="357" y="618"/>
      <point x="357" y="498" type="curve" smooth="yes"/>
      <point x="357" y="434"/>
      <point x="383" y="392"/>
      <point x="425" y="392" type="curve" smooth="yes"/>
      <point x="460" y="392"/>
      <point x="479" y="419"/>
    </contour>
  </outline>
</glyph>
<glyph name="quotedblright" format="2">
  <advance width="513"/>
  <unicode hex="201D"/>
  <outline>
    <contour>
      <point x="156" y="588" type="curve" smooth="yes"/>
      <point x="156" y="652"/>
      <point x="130" y="694"/>
      <point x="88" y="694" type="curve" smooth="yes"/>
      <point x="53" y="694"/>
      <point x="34" y="667"/>
      <point x="34" y="640" type="curve" smooth="yes"/>
      <point x="34" y="613"/>
      <point x="53" y="586"/>
      <point x="88" y="586" type="curve" smooth="yes"/>
      <point x="101" y="586"/>
      <point x="114" y="590"/>
      <point x="125" y="599" type="curve"/>
      <point x="127" y="601"/>
      <point x="128" y="602"/>
      <point x="129" y="602" type="curve" smooth="yes"/>
      <point x="131" y="602"/>
      <point x="131" y="596"/>
      <point x="131" y="587" type="curve" smooth="yes"/>
      <point x="131" y="521"/>
      <point x="101" y="460"/>
      <point x="53" y="415" type="curve" smooth="yes"/>
      <point x="51" y="413"/>
      <point x="48" y="410"/>
      <point x="48" y="405" type="curve" smooth="yes"/>
      <point x="48" y="400"/>
      <point x="54" y="393"/>
      <point x="61" y="393" type="curve" smooth="yes"/>
      <point x="71" y="393"/>
      <point x="156" y="468"/>
    </contour>
    <contour>
      <point x="356" y="588" type="curve" smooth="yes"/>
      <point x="356" y="652"/>
      <point x="330" y="694"/>
      <point x="288" y="694" type="curve" smooth="yes"/>
      <point x="253" y="694"/>
      <point x="234" y="667"/>
      <point x="234" y="640" type="curve" smooth="yes"/>
      <point x="234" y="613"/>
      <point x="253" y="586"/>
      <point x="288" y="586" type="curve" smooth="yes"/>
      <point x="301" y="586"/>
      <point x="314" y="590"/>
      <point x="325" y="599" type="curve"/>
      <point x="327" y="601"/>
      <point x="328" y="602"/>
      <point x="329" y="602" type="curve" smooth="yes"/>
      <point x="331" y="602"/>
      <point x="331" y="596"/>
      <point x="331" y="587" type="curve" smooth="yes"/>
      <point x="331" y="521"/>
      <point x="301" y="460"/>
      <point x="253" y="415" type="curve" smooth="yes"/>
      <point x="251" y="413"/>
      <point x="248" y="410"/>
      <point x="248" y="405" type="curve" smooth="yes"/>
      <point x="248" y="400"/>
      <point x="254" y="393"/>
      <point x="261" y="393" type="curve" smooth="yes"/>
      <point x="271" y="393"/>
      <point x="356" y="468"/>
    </contour>
  </outline>
</glyph>
<glyph name="Omega" format="2">
  <advance width="742"/>
  <unicode hex="2126"/>
  <outline>
    <contour>
      <point x="695" y="163" type="line"/>
      <point x="667" y="163" type="line"/>
      <point x="661" y="136"/>
      <point x="654" y="104"/>
      <point x="649" y="90" type="curve" smooth="yes"/>
      <point x="643" y="74"/>
      <point x="640" y="66"/>
      <point x="582" y="66" type="curve" smooth="yes"/>
      <point x="502" y="66" type="line"/>
      <point x="515" y="116"/>
      <point x="537" y="154"/>
      <point x="584" y="223" type="curve" smooth="yes"/>
      <point x="636" y="298"/>
      <point x="684" y="368"/>
      <point x="684" y="454" type="curve" smooth="yes"/>
      <point x="684" y="592"/>
      <point x="546" y="705"/>
      <point x="371" y="705" type="curve" smooth="yes"/>
      <point x="192" y="705"/>
      <point x="57" y="590"/>
      <point x="57" y="454" type="curve" smooth="yes"/>
      <point x="57" y="367"/>
      <point x="107" y="295"/>
      <point x="155" y="225" type="curve" smooth="yes"/>
      <point x="207" y="149"/>
      <point x="227" y="113"/>
      <point x="239" y="66" type="curve"/>
      <point x="159" y="66" type="line" smooth="yes"/>
      <point x="101" y="66"/>
      <point x="98" y="74"/>
      <point x="93" y="87" type="curve" smooth="yes"/>
      <point x="87" y="102"/>
      <point x="79" y="137"/>
      <point x="74" y="163" type="curve"/>
      <point x="46" y="163" type="line"/>
      <point x="80" y="0" type="line"/>
      <point x="244" y="0" type="line" smooth="yes"/>
      <point x="266" y="0"/>
      <point x="271" y="0"/>
      <point x="271" y="21" type="curve" smooth="yes"/>
      <point x="271" y="92"/>
      <point x="239" y="175"/>
      <point x="209" y="251" type="curve" smooth="yes"/>
      <point x="183" y="318"/>
      <point x="159" y="385"/>
      <point x="159" y="455" type="curve" smooth="yes"/>
      <point x="159" y="607"/>
      <point x="269" y="680"/>
      <point x="370" y="680" type="curve" smooth="yes"/>
      <point x="476" y="680"/>
      <point x="582" y="603"/>
      <point x="582" y="455" type="curve" smooth="yes"/>
      <point x="582" y="381"/>
      <point x="555" y="312"/>
      <point x="531" y="251" type="curve" smooth="yes"/>
      <point x="502" y="174"/>
      <point x="470" y="92"/>
      <point x="470" y="21" type="curve" smooth="yes"/>
      <point x="470" y="0"/>
      <point x="475" y="0"/>
      <point x="497" y="0" type="curve" smooth="yes"/>
      <point x="661" y="0" type="line"/>
    </contour>
  </outline>
</glyph>
<glyph name="Delta" format="2">
  <advance width="856"/>
  <unicode hex="2206"/>
  <outline>
    <contour>
      <point x="457" y="693" type="line" smooth="yes"/>
      <point x="448" y="711"/>
      <point x="443" y="716"/>
      <point x="427" y="716" type="curve" smooth="yes"/>
      <point x="413" y="716"/>
      <point x="407" y="711"/>
      <point x="400" y="697" type="curve" smooth="yes"/>
      <point x="55" y="24" type="line" smooth="yes"/>
      <point x="51" y="16"/>
      <point x="49" y="11"/>
      <point x="49" y="9" type="curve" smooth="yes"/>
      <point x="49" y="0"/>
      <point x="56" y="0"/>
      <point x="72" y="0" type="curve" smooth="yes"/>
      <point x="783" y="0" type="line" smooth="yes"/>
      <point x="799" y="0"/>
      <point x="806" y="0"/>
      <point x="806" y="9" type="curve" smooth="yes"/>
      <point x="806" y="10"/>
      <point x="806" y="12"/>
      <point x="801" y="22" type="curve" smooth="yes"/>
    </contour>
    <contour>
      <point x="394" y="617" type="line"/>
      <point x="672" y="77" type="line"/>
      <point x="117" y="77" type="line"/>
    </contour>
  </outline>
</glyph>
<glyph name="dotlessj" format="2">
  <advance width="314"/>
  <outline>
    <contour>
      <point x="62" y="431" type="line"/>
      <point x="62" y="400" type="line"/>
      <point x="138" y="400"/>
      <point x="147" y="393"/>
      <point x="147" y="344" type="curve" smooth="yes"/>
      <point x="147" y="-51" type="line" smooth="yes"/>
      <point x="147" y="-80"/>
      <point x="143" y="-180"/>
      <point x="75" y="-180" type="curve" smooth="yes"/>
      <point x="72" y="-180"/>
      <point x="46" y="-180"/>
      <point x="22" y="-168" type="curve"/>
      <point x="54" y="-158"/>
      <point x="54" y="-130"/>
      <point x="54" y="-124" type="curve" smooth="yes"/>
      <point x="54" y="-98"/>
      <point x="35" y="-78"/>
      <point x="8" y="-78" type="curve" smooth="yes"/>
      <point x="-21" y="-78"/>
      <point x="-39" y="-98"/>
      <point x="-39" y="-125" type="curve" smooth="yes"/>
      <point x="-39" y="-177"/>
      <point x="19" y="-205"/>
      <point x="76" y="-205" type="curve" smooth="yes"/>
      <point x="155" y="-205"/>
      <point x="218" y="-140"/>
      <point x="218" y="-48" type="curve" smooth="yes"/>
      <point x="218" y="442" type="line"/>
    </contour>
  </outline>
</glyph>
<glyph name="ffi" format="2">
  <advance width="856"/>
  <outline>
    <contour>
      <point x="618" y="434" type="line" smooth="yes"/>
      <point x="602" y="433"/>
      <point x="601" y="432"/>
      <point x="600" y="432" type="curve"/>
      <point x="598" y="431"/>
      <point x="596" y="431"/>
      <point x="582" y="431" type="curve" smooth="yes"/>
      <point x="460" y="431" type="line"/>
      <point x="460" y="541" type="line" smooth="yes"/>
      <point x="460" y="645"/>
      <point x="554" y="680"/>
      <point x="611" y="680" type="curve" smooth="yes"/>
      <point x="634" y="680"/>
      <point x="672" y="674"/>
      <point x="697" y="650" type="curve"/>
      <point x="658" y="646"/>
      <point x="652" y="615"/>
      <point x="652" y="603" type="curve" smooth="yes"/>
      <point x="652" y="573"/>
      <point x="676" y="556"/>
      <point x="699" y="556" type="curve" smooth="yes"/>
      <point x="726" y="556"/>
      <point x="747" y="575"/>
      <point x="747" y="603" type="curve" smooth="yes"/>
      <point x="747" y="660"/>
      <point x="692" y="705"/>
      <point x="612" y="705" type="curve" smooth="yes"/>
      <point x="552" y="705"/>
      <point x="493" y="688"/>
      <point x="444" y="651" type="curve"/>
      <point x="424" y="681"/>
      <point x="384" y="705"/>
      <point x="325" y="705" type="curve" smooth="yes"/>
      <point x="224" y="705"/>
      <point x="107" y="650"/>
      <point x="107" y="544" type="curve" smooth="yes"/>
      <point x="107" y="431" type="line"/>
      <point x="28" y="431" type="line"/>
      <point x="28" y="400" type="line"/>
      <point x="107" y="400" type="line"/>
      <point x="107" y="77" type="line" smooth="yes"/>
      <point x="107" y="31"/>
      <point x="96" y="31"/>
      <point x="30" y="31" type="curve"/>
      <point x="30" y="0" type="line"/>
      <point x="77" y="2"/>
      <point x="96" y="3"/>
      <point x="142" y="3" type="curve" smooth="yes"/>
      <point x="189" y="3"/>
      <point x="206" y="2"/>
      <point x="255" y="0" type="curve"/>
      <point x="255" y="31" type="line"/>
      <point x="189" y="31"/>
      <point x="178" y="31"/>
      <point x="178" y="77" type="curve" smooth="yes"/>
      <point x="178" y="400" type="line"/>
      <point x="392" y="400" type="line"/>
      <point x="392" y="77" type="line" smooth="yes"/>
      <point x="392" y="31"/>
      <point x="381" y="31"/>
      <point x="315" y="31" type="curve"/>
      <point x="315" y="0" type="line"/>
      <point x="362" y="2"/>
      <point x="381" y="3"/>
      <point x="427" y="3" type="curve" smooth="yes"/>
      <point x="474" y="3"/>
      <point x="491" y="2"/>
      <point x="540" y="0" type="curve"/>
      <point x="540" y="31" type="line"/>
      <point x="474" y="31"/>
      <point x="463" y="31"/>
      <point x="463" y="77" type="curve" smooth="yes"/>
      <point x="463" y="400" type="line"/>
      <point x="624" y="400" type="line" smooth="yes"/>
      <point x="671" y="400"/>
      <point x="677" y="387"/>
      <point x="677" y="346" type="curve" smooth="yes"/>
      <point x="677" y="77" type="line" smooth="yes"/>
      <point x="677" y="31"/>
      <point x="666" y="31"/>
      <point x="600" y="31" type="curve"/>
      <point x="600" y="0" type="line"/>
      <point x="647" y="2"/>
      <point x="666" y="3"/>
      <point x="712" y="3" type="curve" smooth="yes"/>
      <point x="759" y="3"/>
      <point x="776" y="2"/>
      <point x="825" y="0" type="curve"/>
      <point x="825" y="31" type="line"/>
      <point x="759" y="31"/>
      <point x="748" y="31"/>
      <point x="748" y="77" type="curve" smooth="yes"/>
      <point x="748" y="443" type="line"/>
    </contour>
    <contour>
      <point x="175" y="541" type="line" smooth="yes"/>
      <point x="175" y="647"/>
      <point x="269" y="680"/>
      <point x="324" y="680" type="curve" smooth="yes"/>
      <point x="336" y="680"/>
      <point x="378" y="679"/>
      <point x="409" y="650" type="curve"/>
      <point x="364" y="645"/>
      <point x="364" y="607"/>
      <point x="364" y="603" type="curve" smooth="yes"/>
      <point x="364" y="587"/>
      <point x="373" y="568"/>
      <point x="392" y="560" type="curve"/>
      <point x="392" y="431" type="line"/>
      <point x="175" y="431" type="line"/>
    </contour>
  </outline>
</glyph>
<glyph name="suppress" format="2">
  <advance width="285"/>
  <outline>
    <contour>
      <point x="270" y="363" type="line"/>
      <point x="260" y="392" type="line"/>
      <point x="26" y="310" type="line"/>
      <point x="36" y="280" type="line"/>
    </contour>
  </outline>
</glyph>
